# Generated by scripts/generate_campus_collision.py
# Source materials: Grass
o grass_surface_collision
v -124.498520 27.769890 0.201231
v -86.517975 75.078201 0.200000
v -94.853088 73.701920 0.200000
v -94.158264 66.887039 0.200000
v -86.566757 68.259041 0.200000
v -80.670547 75.885971 0.200000
v -108.981918 63.508530 0.200000
v -110.014786 70.724060 0.200000
v -123.500031 55.578812 0.200000
v -131.595657 43.018429 0.200000
v -154.328918 14.837620 0.200000
v -150.424957 12.098091 0.200000
v -126.834320 61.062359 0.200000
v -119.884720 62.330021 0.200000
v -140.701721 37.961826 0.200000
v -141.396362 36.783092 0.200000
v -148.440002 33.655708 0.200000
v -139.767288 48.056992 0.200000
v -153.160950 10.287579 0.200000
v -158.229584 16.821995 0.200000
v -155.363174 10.601280 0.200000
v -157.492233 11.220196 0.200000
v -162.689590 19.450394 0.200000
v -143.861481 50.800777 0.200000
v -147.025986 27.230110 0.200000
v -159.373886 12.212852 0.200000
v -162.655914 16.237564 0.200000
v -163.006927 17.903835 0.200000
v -119.477386 61.819923 0.200000
v -136.422195 57.989601 0.200000
v -133.830200 59.382233 0.200000
v -138.846832 56.221344 0.200000
v -141.489044 53.572247 0.200000
v -147.645752 26.178391 0.200000
v -151.543167 19.564823 0.200000
v -160.949188 13.501781 0.200000
v -136.058685 45.840603 0.200000
v -137.359924 18.053722 0.201276
v -138.109268 18.085754 0.201276
v -133.476578 27.041622 0.201276
v -132.942947 27.584167 0.201276
v -132.442505 27.502155 0.201276
v -136.316513 18.669243 0.201276
v -138.151825 18.614902 0.201276
v -132.422821 26.689396 0.201276
v 31.945707 31.120914 0.199957
v 29.636015 33.223587 0.200000
v 25.839008 44.459793 0.200000
v 23.438671 57.715916 0.199963
v 27.778732 36.259239 0.399110
v 22.964195 33.161690 0.201284
v 22.307755 35.395149 0.200000
v 80.528572 50.768715 0.200000
v -86.542770 68.249191 0.001419
v 49.202358 37.072937 0.201276
v 10.568520 75.311867 0.201289
v 12.884533 71.259476 0.201297
v 101.855896 -9.017448 0.201268
v 96.930969 -5.845234 0.201268
v 92.666229 -12.577263 0.201297
v 94.348648 -16.078049 0.201305
v 53.816532 38.638401 0.201276
v 63.575863 -139.276428 0.200000
v 65.881104 -141.237640 0.200000
v 114.139732 -16.479195 0.201268
v 113.690674 -16.216545 0.201269
v -11.442772 84.607864 0.201264
v -4.638351 83.418648 0.201272
v -10.039509 90.822594 0.201286
v -18.398811 91.317169 0.201294
v -127.353546 67.622681 0.201296
v -134.542618 66.049759 0.201299
v -138.401703 64.019073 0.265139
v -145.513199 58.472095 0.383786
v -148.507751 55.243229 0.426566
v -157.449448 40.694717 0.201312
v 21.960629 24.705893 0.200000
v -168.333191 23.349228 0.201319
v 37.510986 15.275192 0.201235
v -142.316025 61.497520 0.341006
v 156.589691 -63.355782 0.201237
v 154.841141 -58.226219 0.201244
v 25.265268 29.736889 0.201323
v -169.133514 15.248138 0.201311
v -166.318161 9.986320 0.201297
v 40.065208 19.299887 0.201242
v -169.197189 19.337730 0.201317
v 53.405281 76.207123 0.201209
v 50.209660 80.079453 0.201291
v -163.120285 7.310997 0.201284
v -159.617264 4.941330 0.201270
v 34.010925 68.076256 0.201310
v -120.179077 68.787437 0.201298
v 39.603271 65.774849 0.201213
v -110.982666 61.604141 0.157219
v 53.930538 38.571480 0.201219
v 51.623169 51.101059 0.201242
v 48.091373 56.908363 0.201256
v 101.047096 19.906960 0.201253
v 104.406296 19.510897 0.201280
v -18.509720 82.865631 0.201239
v -18.429245 83.844711 0.201230
v 50.756058 53.112980 0.201247
v 49.547024 55.145164 0.201252
v 87.256721 0.005684 0.201267
v 82.230797 3.428921 0.201247
v -26.314415 83.143044 0.201263
v -24.804321 82.602844 0.201286
v 114.798889 -32.002178 0.201286
v 121.810509 -37.355331 0.200000
v 112.486748 -30.361988 0.201330
v 152.503662 -53.444878 0.201250
v 145.247589 -43.921448 0.201255
v -7.179882 69.652519 0.201286
v -9.795670 71.189590 0.184683
v -26.965919 89.823402 0.201298
v -16.680031 70.740135 0.201307
v -16.344978 69.164299 0.184737
v -17.705986 84.637627 0.201242
v -24.151291 81.826683 0.201298
v -11.534256 73.013664 0.201255
v 80.977539 -110.821251 0.204549
v 63.627197 -137.877533 0.201225
v 69.224701 -128.148590 0.201225
v -16.882668 67.352234 0.201321
v -74.192230 77.212448 0.201296
v 3.042309 80.163734 0.201276
v 15.172173 79.908676 0.201266
v 7.059605 85.233551 0.201270
v 4.448589 65.370323 0.201214
v 2.939381 71.674332 0.201265
v -20.875031 66.626144 0.201329
v -126.599213 31.127594 0.201250
v 136.423706 -24.072800 0.201297
v 120.259918 -20.262444 0.201269
v -1.277290 88.908203 0.201278
v -128.921585 34.839554 0.201228
v -117.815521 52.383221 0.201232
v -110.789642 58.971897 0.198367
v -111.316498 60.072845 0.177793
v 152.071167 -42.855232 0.201285
v -116.306808 52.675217 0.201252
v 165.892029 -52.524315 0.201277
v 110.317619 -27.214046 0.201258
v 112.128769 -27.159649 0.201262
v 49.507385 13.498364 0.201240
v 51.183666 13.752635 0.225684
v 114.458633 -27.884502 0.201320
v 114.049576 -28.398453 0.201322
v -143.289780 10.257923 0.201241
v -136.985428 12.037979 0.201249
v 176.828766 -54.743767 0.201238
v 41.980087 14.919463 0.201320
v 40.957420 13.192673 0.201320
v 47.280743 11.566542 0.201234
v -67.843292 79.169662 0.201299
v 16.565178 -27.994102 0.201325
v 114.350151 -27.245880 0.201283
v 114.488968 -27.387573 0.201307
v 43.065258 99.998413 0.200000
v 53.810020 85.875351 0.200000
v -73.499435 70.539673 0.201250
v -67.134750 72.501740 0.201247
v 114.510643 -27.641342 0.201317
v -81.007217 69.063286 0.200000
v -153.229965 3.897781 0.201253
v -147.354538 6.390205 0.201239
v -156.477844 4.266930 0.201263
v -130.611816 13.837589 0.201233
v -61.737198 81.514763 0.201302
v 42.383865 17.496672 0.201312
v 88.655937 11.119427 0.201237
v 99.421303 19.398998 0.201242
v -61.022324 74.849266 0.201246
v 31.769091 67.646973 0.201278
v 30.860092 68.128944 0.201266
v -50.949326 85.274529 0.201301
v -57.004684 83.332321 0.201302
v 32.767334 67.495255 0.201298
v 113.939911 -27.105263 0.201265
v -44.784225 86.716614 0.201299
v 25.630363 73.197586 0.201264
v 113.243782 -15.955166 0.201269
v -50.252762 78.602829 0.201249
v -44.101089 80.041779 0.201252
v 130.228592 -27.087097 0.201261
v 131.670547 -28.509487 0.201260
v -56.295090 76.664810 0.201247
v 82.128433 4.411518 0.201232
v 82.602058 5.684278 0.201232
v 49.361465 37.021320 0.201203
v 52.564789 13.300664 0.231846
v 96.148712 30.168123 0.200133
v 96.521225 28.496246 0.122189
v 86.891365 37.877640 0.161311
v 89.008392 37.962086 0.185256
v 95.580399 26.903732 0.159268
v 90.722527 36.964809 0.205030
v 43.155422 31.084963 0.165419
v 43.263474 29.979662 0.165415
v 41.446304 27.780825 0.207853
v 39.706833 27.417259 0.218596
v 25.479568 60.317028 0.200005
v 26.971212 60.743298 0.200018
v 42.981277 28.883125 0.165397
v 28.500935 60.812836 0.200033
v 29.040277 60.537148 0.200039
v 37.777599 28.017033 0.199962
v 24.242676 59.402813 0.199985
v 39.775501 50.981224 0.200045
v 40.771236 49.510155 0.200046
v 41.247490 48.277252 0.200044
v 36.628792 46.431496 0.200024
v 38.973011 32.190712 0.200059
v 42.969734 32.518822 0.165438
v 29.591290 60.255493 0.200042
v 41.463425 47.257923 0.200026
v 99.113708 -20.068302 0.200000
v 97.276733 -16.510727 0.200000
v 98.056831 -15.529213 0.200000
v 109.497910 -22.497505 0.200000
v 97.260284 -16.039921 0.200000
v 97.505226 -15.692039 0.200000
v 109.739342 -22.858067 0.200000
v 109.666649 -23.150810 0.200000
v 106.546089 -24.042046 0.200000
v 105.974510 -23.962376 0.200000
v 109.455032 -23.346672 0.200000
v 108.243118 -23.676796 0.200000
v 102.839966 -22.226097 0.200000
v 99.385849 -20.312817 0.200000
v 107.394600 -23.859417 0.200000
v -107.992355 62.308628 0.201263
v -99.912048 33.923473 0.202553
v -115.515350 51.963058 0.201271
v -118.909637 46.657631 0.202546
v 14.537949 67.407288 0.206389
v 13.667233 69.676956 0.201299
v -20.107445 62.326340 0.201276
v -16.167374 63.025578 0.201276
v 96.052048 -5.297859 0.201268
v 92.076508 -11.911636 0.201295
v 95.308090 -18.323338 0.200000
v 80.876328 -10.677471 0.201284
v 89.427551 -16.055752 0.200686
v 49.704407 8.793043 0.231846
v 107.425133 -27.299541 0.200154
v 57.833469 -135.442291 0.201307
v 70.517647 -127.017387 0.201225
v 72.500877 -126.684868 0.201272
v 79.051025 -129.963257 0.201366
v 60.014107 77.720612 0.200000
v 70.271652 64.237946 0.200000
v 36.183224 108.757362 0.200000
v 27.422581 37.764938 0.200000
v 107.378525 -27.279121 0.005084
v 57.796921 -135.482391 0.014369
v -75.949356 54.852230 0.200000
v -80.907227 53.062466 0.200000
v -85.428192 50.172268 0.200000
v -42.106834 37.061447 0.200000
v -33.714554 34.035847 0.200000
v -71.372429 30.636868 0.200000
v -67.508423 32.578751 0.200000
v 86.836685 -18.822006 0.200000
v 78.270142 -13.489449 0.200000
v 49.065582 -18.039429 0.200000
v 35.775749 -10.119232 0.200000
v 47.493214 5.304731 0.200000
v 44.562462 7.094423 0.200000
v 37.234711 -4.872143 0.200000
v 15.293724 -42.029701 0.200000
v 29.462393 -50.473648 0.200000
v 130.127167 -64.258171 0.200000
v 135.787262 -67.783394 0.200000
v 69.715309 -24.830593 0.200000
v 35.866257 -40.493568 0.200000
v 107.871490 -54.691505 0.200000
v 109.836700 -51.620811 0.200000
v 27.059284 -23.693779 0.200000
v 22.017025 -31.551834 0.200000
v 66.913635 -29.208225 0.200000
v 105.333740 -30.336163 0.200000
v 90.821442 -63.769218 0.200000
v 97.888916 -68.165581 0.200000
v 112.111221 -101.319359 0.200000
v 125.414894 -109.782784 0.200000
v 128.297607 -67.449463 0.200000
v 123.384232 -84.082520 0.200000
v 73.105423 -52.748787 0.200000
v 82.393066 -58.526268 0.200000
v 58.627129 -43.742432 0.200000
v 120.899017 -40.019066 0.200000
v 117.394478 -37.843788 0.200000
v 40.668945 -33.008842 0.200000
v 143.334473 -55.345039 0.200000
v 12.716427 30.182051 0.200000
v 9.084183 29.551563 0.200000
v -82.166443 22.653221 0.200000
v -77.000854 27.130226 0.200000
v 8.710419 32.106216 0.200000
v -15.845467 61.214180 0.200000
v -18.500374 60.675125 0.200000
v -14.525475 42.565964 0.200000
v -14.964378 42.388535 0.200000
v -89.949448 8.712769 0.200000
v -88.367599 12.805431 0.200000
v 19.514875 34.299976 0.200000
v -105.190170 33.866142 0.200000
v -117.876221 40.810047 0.200000
v -29.709160 29.309925 0.200000
v -23.968628 25.986462 0.200000
v -134.038879 5.259899 0.200000
v -120.426071 -0.313206 0.200000
v -63.644417 34.520626 0.200000
v -59.679649 35.963909 0.200000
v -17.561722 52.863312 0.200000
v -28.414581 54.948433 0.200000
v -106.406830 -6.332550 0.200000
v -101.482132 6.170773 0.200000
v -15.167099 20.890837 0.200000
v -40.437706 57.517250 0.200000
v -49.905960 57.759911 0.200000
v -50.062309 60.193638 0.200000
v -56.688469 59.606888 0.200000
v -28.335915 32.113403 0.200000
v -85.343109 18.553974 0.200000
v 141.227509 -52.636986 0.200000
v -48.298607 37.372879 0.200000
v -55.714897 36.897018 0.200000
v -72.112625 56.220707 0.200000
v -64.273018 57.977573 0.200000
v -107.695816 29.551228 0.200000
v -90.271942 46.559521 0.200000
v -103.598907 27.642170 0.200000
v -80.967773 69.003708 0.002211
v 92.697784 -22.470455 0.200000
v 137.777359 -50.495483 0.200000
v 37.186733 -119.144112 0.200000
v 46.547153 -124.848381 0.200000
v 76.121132 -107.970238 0.200000
v 80.486748 -101.103386 0.200000
v 40.704338 -84.039574 0.200000
v 34.866161 -93.065155 0.200000
v -92.086670 3.227877 0.200000
v 55.684414 -91.980507 0.200000
v 58.712914 -87.263062 0.200000
v 63.729828 -96.627090 0.200000
v 94.260559 -20.031815 0.084002
v 95.342484 -18.343517 0.003696
v -83.963837 9.761684 0.200000
v -86.196732 6.305611 0.200000
v 53.438179 35.379913 0.201273
v 78.861267 47.011971 0.201315
v 146.015411 -74.137184 0.200000
v 118.541718 -120.421089 0.200000
v 120.774612 -116.965019 0.200000
v 0.861721 11.187426 0.200000
v 29.100376 -6.853222 0.200000
v 93.762680 26.566990 0.197677
v 94.932755 27.661705 0.151861
v 87.594460 36.975399 0.170305
v 85.785858 36.725372 0.149582
v 135.427551 -24.878651 0.201253
v 134.124908 -25.807579 0.201242
v 147.588440 -43.056450 0.201245
v 150.019501 -42.778236 0.201262
v 52.672577 85.187881 0.227335
v 35.320992 108.214424 0.227107
v 33.483799 107.091080 0.201276
v 51.136772 83.718796 0.201291
v 51.430710 35.830135 0.201251
v 50.422840 37.381416 0.201207
v 52.005989 35.395767 0.201259
v 69.581482 11.481827 0.227998
v 57.498245 19.009045 0.239689
v 56.930103 20.801174 0.224253
v 56.904163 21.515350 0.188657
v 82.219101 18.002129 0.202104
v 58.833241 24.309803 0.190143
v 72.873016 11.442875 0.221990
v 71.855270 10.999525 0.215545
v 97.774063 -145.519226 0.200000
v 93.226295 -148.221344 0.200000
v 144.967575 -57.444008 0.200000
v 146.560501 -60.668648 0.200000
v 117.027046 -122.765495 0.200000
v 110.433807 -132.211609 0.200000
v 147.575409 -64.144341 0.200000
v 147.200089 -71.044365 0.200000
v 80.574844 -149.213348 0.200000
v 74.748520 -146.977600 0.200000
v 101.496765 -142.370514 0.200000
v 125.242203 -35.025017 0.200000
v 125.374886 -35.084534 0.200000
v 87.303925 -149.776276 0.200000
v 106.144928 -137.705658 0.200000
v 138.837158 -49.564774 0.200000
v 122.565544 -38.011017 0.200000
v 125.109665 -35.081421 0.200000
v 44.675365 -127.989510 0.201316
v 34.930336 -122.446205 0.201617
v 56.668865 -134.822571 0.201312
v 54.571308 -133.618683 0.201309
v 56.978642 -134.999878 0.201308
v -58.173897 -11.039654 0.200000
v -55.941010 -7.583576 0.200000
v 164.627136 -55.428261 0.201242
v 165.339935 -53.846207 0.201253
v 175.905121 -57.683853 0.201242
v 176.295685 -56.048103 0.201253
v 96.120308 -158.145844 0.200961
v 102.701256 -154.789673 0.200896
v 134.187408 -115.319786 0.200803
v 145.624298 -96.243050 0.200799
v 119.381851 -138.869202 0.200818
v 123.680771 -132.844818 0.200810
v 70.516586 -155.793640 0.201309
v 78.596741 -159.542664 0.201199
v 108.740952 -150.393158 0.200853
v 114.540680 -144.482727 0.200832
v 153.237442 -82.165604 0.200799
v 156.862366 -73.080193 0.200801
v 48.908291 -143.083160 0.201454
v 52.327362 -144.977234 0.201340
v 129.641388 -122.902534 0.200806
v -5.585419 -109.401741 0.201613
v 16.427708 -123.007591 0.201549
v 87.965034 -159.941101 0.201067
v 148.281891 -91.810211 0.200796
v 61.085545 -149.979462 0.201352
v 58.630955 -148.393066 0.201342
v 127.453842 -126.551338 0.200807
v 157.586884 -63.430656 0.200827
v 59.637192 -132.733521 0.200000
v 23.495022 -110.645775 0.200000
v 44.336647 -78.341377 0.200000
v 78.554901 -130.911499 0.200000
v 87.765968 -135.109161 0.200000
v 93.084351 -108.536125 0.200000
v 95.819580 -135.802795 0.200000
v 103.718338 -134.462555 0.200000
v 85.681808 -103.952766 0.200000
v 29.343201 -130.990509 0.167595
v 21.585991 -114.855476 0.201331
v -0.943733 -102.039803 0.201345
v 69.744659 62.548851 0.227352
v 58.698353 77.197189 0.227341
v 57.078140 75.852516 0.201296
v 67.969704 61.432243 0.201305
v 80.790962 47.900520 0.227363
v 23.635397 -61.677040 0.200000
v 25.868288 -58.220970 0.200000
v 11.192673 -49.137230 0.200000
v 8.959778 -52.593300 0.200000
v 39.379784 -71.422325 0.200000
v 41.612679 -67.966255 0.200000
v 107.649582 -108.841026 0.200000
v 105.416695 -112.297112 0.200000
v 68.307137 -89.327454 0.200000
v 70.540031 -85.871384 0.200000
v 57.357067 -77.711540 0.200000
v 55.124176 -81.167610 0.200000
v 82.503326 -93.276283 0.200000
v 84.269165 -99.207451 0.200000
v -24.191734 -27.235382 0.200000
v -26.424622 -30.691467 0.200000
v -48.920319 -11.929165 0.200000
v -51.153214 -15.385239 0.200000
v 84.845284 -104.626793 0.200000
v 80.270432 -96.732361 0.200000
v 85.348106 -103.761940 0.200000
v 66.566330 -92.280830 0.200000
v -86.906219 77.639130 0.215301
v -95.313736 76.250885 0.215315
v -81.107986 78.440094 0.215324
v -110.506729 73.266884 0.215318
v 94.270973 -19.975513 0.200000
v 26.212275 -23.095387 0.201239
v 21.336700 -31.111729 0.200708
v 37.234707 -4.872143 0.252712
v 14.835648 -41.800659 0.200000
v 9.984451 -38.718956 0.200000
v 52.715057 -48.885239 0.210310
v 45.373795 -60.262367 0.200110
v 83.671570 -64.303345 0.229252
v 69.563866 -57.276901 0.220620
v 61.285202 -70.051102 0.200220
v 74.608009 -78.247314 0.200312
v 96.474045 -70.679710 0.237086
v 86.698212 -85.685234 0.200395
v -50.152145 31.655628 0.207768
v -45.635178 31.428440 0.216279
v -39.512909 29.221228 0.244292
v -36.590927 25.773609 0.248714
v -55.727356 -1.140642 0.208725
v -37.085175 27.676298 0.202584
v -61.347099 29.574875 0.207768
v -58.454750 30.627769 0.207768
v -77.176552 17.927013 0.207768
v -74.859131 20.917461 0.207768
v -64.165932 28.158257 0.207768
v -71.090782 24.183491 0.246145
v -66.984779 26.741627 0.207768
v -55.562424 31.308483 0.207768
v -76.170357 11.512930 0.208725
v -55.143021 24.918533 0.247332
v -55.093796 27.113338 0.205707
v -55.061569 28.550816 0.221256
v -55.021866 30.321075 0.211194
v 18.665125 -71.450821 0.200328
v 12.774891 -80.441574 0.200000
v -97.043488 -9.269249 0.200000
v -125.187073 -13.326630 0.200000
v -111.167831 -19.345970 0.200000
v -138.799881 -7.753517 0.200000
v -101.804504 -22.282673 0.200000
v -63.877960 -20.720119 0.201311
v 95.222946 29.724922 0.201280
v 95.463913 28.643431 0.121680
v 88.734261 36.964645 0.188006
v 90.057831 36.194607 0.207111
v -142.520950 4.598495 0.201241
v -137.156281 6.143631 0.201249
v -146.607071 0.709419 0.201239
v -152.482483 -1.782997 0.201253
v -74.834991 79.724533 0.215384
v 32.512917 70.218048 0.215019
v -27.410797 92.374878 0.215291
v -45.302040 89.255371 0.215350
v 16.582191 82.081223 0.214464
v 8.301006 87.516777 0.214588
v 27.246994 75.237541 0.214412
v -57.865158 85.776253 0.215458
v -62.665764 83.932541 0.215476
v -18.546745 93.920410 0.215179
v -0.470535 91.383011 0.214776
v -9.684464 93.396080 0.214986
v 54.117359 51.857658 0.213663
v 53.067928 54.292603 0.213926
v -68.690048 81.618866 0.215448
v -156.897079 1.707939 0.214428
v 51.671051 56.640518 0.214057
v 50.028053 58.630650 0.213872
v -170.769165 24.339905 0.215895
v -171.791458 19.593536 0.215815
v -127.838226 70.167862 0.215360
v -135.438400 68.504990 0.215478
v -139.708374 66.258163 0.279448
v 43.486732 65.463577 0.211646
v -147.354568 60.295395 0.398244
v -150.580566 56.816933 0.441079
v -143.920914 63.544525 0.355405
v 56.763428 36.901344 0.201278
v -160.652344 2.514637 0.214723
v -159.649689 42.061089 0.215841
v -120.629059 71.338257 0.215322
v -168.365005 8.321899 0.215328
v -164.680862 5.239773 0.215003
v -171.713379 14.579941 0.215663
v -51.640915 87.772629 0.215406
v 128.735016 -146.214386 0.195882
v 133.626312 -139.359772 0.195789
v 64.879730 -166.274719 0.201477
v 75.735840 -171.311707 0.200268
v 116.529800 -159.417603 0.196323
v 123.287697 -152.530731 0.196058
v 89.007050 -171.876160 0.198846
v 168.572449 -75.788528 0.195620
v 155.813477 -102.351692 0.195706
v 158.670959 -97.585396 0.195674
v 54.743382 -160.025726 0.202040
v 164.062317 -87.092606 0.195657
v 100.161263 -169.420746 0.197625
v 108.934341 -164.946625 0.196835
v 42.903408 -153.337708 0.203504
v 46.618774 -155.395966 0.202398
v 137.643005 -132.659943 0.195758
v 139.830536 -129.011169 0.195745
v -11.831429 -119.507286 0.204337
v 10.279110 -133.173340 0.204001
v 52.567696 -158.619598 0.202115
v 144.376572 -121.428413 0.195730
v 72.006920 -127.770775 0.201271
v 23.252026 -141.191650 0.198266
v -12.495895 -10.184761 0.200000
v -18.751213 -19.328499 0.200000
v 1.381298 -98.027016 0.200673
v 21.459520 -65.589638 0.200655
v -61.135628 -14.824085 0.201311
v -54.114937 -19.169674 0.201311
v -29.386353 -34.475891 0.201311
v 5.998055 -56.377731 0.201311
v -56.857285 -25.065708 0.201311
v -32.128693 -40.371925 0.201311
v 3.255711 -62.273766 0.201311
vn 0.000088 0.000050 1.000000
vn 0.000859 -0.005847 0.999983
vn 0.001022 -0.005822 0.999983
vn -0.000041 0.000309 1.000000
vn 0.402110 0.149754 0.903261
vn 0.000963 -0.005679 0.999983
vn -0.011745 0.004709 0.999920
vn 0.001170 -0.005797 0.999983
vn 0.000000 0.000000 1.000000
vn 0.000000 0.000000 1.000000
vn 0.000000 0.000000 1.000000
vn 0.000000 0.000000 1.000000
vn 0.000000 0.000000 1.000000
vn 0.000000 0.000000 1.000000
vn 0.000000 0.000000 1.000000
vn 0.000000 0.000000 1.000000
vn 0.000000 0.000000 1.000000
vn 0.000000 0.000000 1.000000
vn 0.000000 0.000000 1.000000
vn 0.000000 0.000000 1.000000
vn 0.000000 0.000000 1.000000
vn 0.000000 0.000000 1.000000
vn 0.000000 0.000000 1.000000
vn 0.000000 0.000000 1.000000
vn 0.000000 0.000000 1.000000
vn 0.000000 0.000000 1.000000
vn 0.000000 0.000000 1.000000
vn 0.000000 0.000000 1.000000
vn 0.000000 0.000000 1.000000
vn 0.000000 0.000000 1.000000
vn 0.000000 0.000000 1.000000
vn 0.000000 0.000000 1.000000
vn 0.000000 0.000000 1.000000
vn 0.000000 0.000000 1.000000
vn 0.000000 0.000000 1.000000
vn 0.000000 0.000000 1.000000
vn 0.000000 0.000000 1.000000
vn 0.000000 0.000000 1.000000
vn 0.000000 0.000000 1.000000
vn 0.000000 0.000000 1.000000
vn 0.000000 0.000000 1.000000
vn 0.000000 0.000000 1.000000
vn 0.000000 0.000000 1.000000
vn 0.000000 0.000000 1.000000
vn 0.000000 0.000000 1.000000
vn -0.000028 -0.000052 1.000000
vn -0.002604 -0.023431 0.999722
vn -0.000005 -0.000001 1.000000
vn -0.000011 -0.000005 1.000000
vn 0.031862 0.038804 0.998739
vn -0.000183 0.000161 1.000000
vn -0.000202 0.000515 1.000000
vn 0.014738 0.011170 0.999829
vn 0.932843 0.347411 0.095448
vn 0.000235 -0.000691 1.000000
vn -0.000003 -0.000004 1.000000
vn -0.000008 -0.000003 1.000000
vn 0.525746 0.850642 0.000003
vn 0.000003 0.000004 -1.000000
vn -0.000002 0.000001 1.000000
vn 0.000074 -0.000186 1.000000
vn 0.000208 -0.000617 1.000000
vn 0.000581 -0.000400 1.000000
vn -0.000056 -0.000069 1.000000
vn 0.522751 0.852485 -0.000062
vn 0.000025 0.000041 1.000000
vn 0.000259 -0.000322 1.000000
vn -0.000002 -0.000003 1.000000
vn -0.000843 -0.005181 0.999986
vn 0.000105 -0.005304 0.999986
vn 0.000968 -0.005336 0.999985
vn 0.006257 -0.003476 0.999974
vn 0.015845 0.001864 0.999873
vn 0.010883 0.002494 0.999938
vn 0.005762 -0.002321 0.999981
vn -0.000190 -0.010152 0.999948
vn -0.000145 -0.000135 1.000000
vn 0.005007 -0.002385 0.999985
vn -0.000018 0.000010 1.000000
vn 0.014522 0.003426 0.999889
vn 0.000422 0.000142 1.000000
vn 0.000106 0.000016 1.000000
vn -0.000206 -0.000127 1.000000
vn 0.005344 0.000918 0.999985
vn 0.004391 0.003094 0.999986
vn -0.000021 0.000008 1.000000
vn 0.005523 -0.000765 0.999984
vn -0.000797 0.001361 0.999999
vn -0.000009 -0.000015 1.000000
vn 0.003301 0.004187 0.999986
vn 0.002343 0.004581 0.999987
vn 0.001939 -0.002912 0.999994
vn 0.001037 -0.005483 0.999984
vn -0.002944 -0.000862 0.999995
vn -0.020708 0.014109 0.999686
vn 0.000034 -0.000127 1.000000
vn -0.002972 -0.001176 0.999995
vn -0.003712 -0.003187 0.999988
vn -0.000018 -0.000013 1.000000
vn -0.000009 -0.000006 1.000000
vn -0.000005 0.000004 1.000000
vn -0.000005 -0.000001 1.000000
vn -0.004353 -0.002144 0.999988
vn -0.004080 -0.002740 0.999988
vn 0.000010 0.000022 1.000000
vn 0.000007 0.000016 1.000000
vn -0.000022 -0.000024 1.000000
vn -0.002231 -0.001895 0.999996
vn -0.000496 -0.000721 1.000000
vn 0.000008 -0.000070 1.000000
vn -0.000922 -0.001141 0.999999
vn 0.000002 0.000001 1.000000
vn 0.000004 0.000003 1.000000
vn -0.002540 -0.000724 0.999997
vn 0.000915 -0.001123 0.999999
vn 0.000930 -0.005308 0.999985
vn -0.011176 -0.007652 0.999908
vn -0.005527 -0.004711 0.999974
vn -0.000004 -0.000012 1.000000
vn -0.000087 -0.000058 1.000000
vn 0.004725 -0.000038 0.999989
vn -0.000370 0.000965 0.999999
vn 0.001626 -0.000935 0.999998
vn 0.000899 -0.000567 0.999999
vn 0.005606 0.002914 0.999980
vn 0.001368 -0.005266 0.999985
vn -0.000001 -0.000001 1.000000
vn -0.002762 -0.004275 0.999987
vn -0.002560 -0.004424 0.999987
vn -0.000228 0.000471 1.000000
vn 0.000000 -0.000004 1.000000
vn -0.000044 -0.000030 1.000000
vn 0.000084 0.000053 1.000000
vn -0.000019 -0.000015 1.000000
vn -0.000006 -0.000010 1.000000
vn -0.001756 -0.004857 0.999987
vn -0.000329 0.000253 1.000000
vn -0.000015 0.000010 1.000000
vn -0.014191 0.009440 0.999855
vn -0.007539 0.015077 0.999858
vn -0.000012 -0.000014 1.000000
vn -0.000015 0.000010 1.000000
vn -0.000007 -0.000017 1.000000
vn 0.018699 -0.622542 -0.782363
vn 0.018828 -0.626892 -0.778878
vn -0.017665 0.020358 0.999637
vn -0.011397 0.009164 0.999893
vn -0.000159 0.000087 1.000000
vn -0.000155 0.000127 1.000000
vn -0.000001 -0.000000 1.000000
vn -0.000000 -0.000000 1.000000
vn 0.000001 -0.000004 1.000000
vn -0.000020 0.000009 1.000000
vn -0.000018 0.000011 1.000000
vn -0.009436 0.006834 0.999932
vn 0.001842 -0.005144 0.999985
vn -0.000018 -0.000038 1.000000
vn -0.000162 -0.000165 1.000000
vn -0.000163 0.000018 1.000000
vn 0.019585 0.015162 0.999693
vn 0.017036 0.012924 0.999771
vn -0.000033 -0.000075 1.000000
vn 0.000025 -0.000082 1.000000
vn -0.000162 0.000036 1.000000
vn -0.694456 -0.247164 0.675752
vn 0.001303 0.001830 0.999997
vn 0.000001 0.000000 1.000000
vn 0.000938 0.005028 0.999987
vn 0.000163 -0.000136 1.000000
vn 0.001962 -0.005106 0.999985
vn -0.000025 0.000007 1.000000
vn -0.000001 0.000002 1.000000
vn 0.000002 0.000002 1.000000
vn 0.000025 -0.000077 1.000000
vn -0.001633 -0.004872 0.999987
vn -0.003040 -0.004178 0.999987
vn 0.001383 -0.005256 0.999985
vn 0.001767 -0.005163 0.999985
vn 0.000725 -0.004972 0.999987
vn 0.028029 -0.941809 0.334977
vn 0.001033 -0.005316 0.999985
vn -0.003306 -0.003873 0.999987
vn 0.000000 0.000000 1.000000
vn 0.000005 -0.000063 1.000000
vn 0.000010 -0.000054 1.000000
vn 0.000003 0.000002 1.000000
vn 0.000004 0.000003 1.000000
vn 0.000019 -0.000072 1.000000
vn 0.000001 0.000009 1.000000
vn -0.000004 0.000003 1.000000
vn 0.000208 -0.000617 1.000000
vn -0.006222 0.001306 0.999980
vn 0.008948 -0.038037 0.999236
vn 0.001898 -0.000530 0.999998
vn -0.013547 0.001891 0.999906
vn -0.009747 0.006718 0.999930
vn 0.009347 0.017757 0.999799
vn -0.001106 0.003150 0.999994
vn 0.020378 0.002299 0.999790
vn 0.027404 -0.003355 0.999619
vn 0.019825 0.000830 0.999803
vn 0.001326 0.005046 0.999986
vn -0.000004 -0.000016 1.000000
vn -0.000008 -0.000006 1.000000
vn 0.033923 -0.008747 0.999386
vn -0.000010 0.000002 1.000000
vn -0.000010 -0.000004 1.000000
vn -0.002971 0.000816 0.999995
vn -0.000008 -0.000009 1.000000
vn -0.000003 -0.000003 1.000000
vn -0.000032 -0.000016 1.000000
vn -0.000092 -0.000037 1.000000
vn -0.000002 -0.000003 1.000000
vn 0.010468 0.014158 0.999845
vn 0.010909 0.005059 0.999928
vn -0.000008 -0.000003 1.000000
vn -0.000045 -0.000023 1.000000
vn 0.000000 0.000000 1.000000
vn 0.000000 0.000000 1.000000
vn 0.000000 0.000000 1.000000
vn 0.000000 0.000000 1.000000
vn 0.000000 0.000000 1.000000
vn 0.000000 0.000000 1.000000
vn 0.000000 0.000000 1.000000
vn 0.000000 0.000000 1.000000
vn 0.000000 0.000000 1.000000
vn 0.000000 0.000000 1.000000
vn 0.000000 0.000000 1.000000
vn 0.000000 0.000000 1.000000
vn 0.000000 0.000000 1.000000
vn 0.000000 0.000000 1.000000
vn 0.000000 0.000000 1.000000
vn -0.000312 0.000246 1.000000
vn -0.000360 -0.000349 1.000000
vn -0.000576 0.000448 1.000000
vn -0.000571 0.000151 1.000000
vn -0.000896 0.001899 0.999998
vn -0.000452 0.000948 0.999999
vn 0.000104 -0.000464 1.000000
vn 0.000121 -0.000683 1.000000
vn 0.000004 0.000006 -1.000000
vn -0.000064 -0.000032 1.000000
vn 0.536216 -0.336598 0.774063
vn 0.000152 -0.000597 1.000000
vn -0.000082 -0.000183 1.000000
vn -0.004510 -0.001004 0.999989
vn -0.112682 -0.104372 0.988134
vn -0.277623 -0.536424 0.796979
vn 0.000007 -0.000080 1.000000
vn -0.000019 0.000008 1.000000
vn -0.000205 -0.000614 1.000000
vn 0.016129 0.012236 0.999795
vn 0.015405 0.011690 0.999813
vn 0.021025 0.016519 0.999642
vn 0.023758 0.049237 0.998505
vn -0.797819 0.549464 0.248141
vn -0.442571 -0.855133 0.269961
vn -0.435119 -0.154907 0.886947
vn 0.630228 0.234710 0.740084
vn 0.000028 -0.000001 1.000000
vn -0.000256 0.002547 0.999997
vn 0.000757 0.006348 0.999980
vn -0.000072 0.005198 0.999986
vn -0.000640 0.001273 0.999999
vn -0.000098 -0.000157 1.000000
vn -0.000953 -0.001983 0.999998
vn 0.000000 0.000000 1.000000
vn 0.009194 -0.005904 0.999940
vn -0.004019 -0.006581 0.999970
vn -0.005827 -0.001108 0.999982
vn 0.000000 0.000000 1.000000
vn 0.000178 -0.000131 1.000000
vn -0.000175 -0.000070 1.000000
vn 0.000000 0.000000 1.000000
vn 0.000000 0.000000 1.000000
vn 0.000000 0.000000 1.000000
vn -0.000464 0.000298 1.000000
vn 0.000000 0.000000 1.000000
vn 0.000000 0.000000 1.000000
vn 0.009405 -0.006985 0.999931
vn 0.000819 -0.000540 1.000000
vn 0.000000 0.000000 1.000000
vn -0.326035 0.224344 0.918352
vn 0.006796 0.010925 0.999917
vn 0.006805 0.010920 0.999917
vn 0.000006 -0.000004 1.000000
vn 0.000000 0.000000 1.000000
vn 0.000000 0.000000 1.000000
vn 0.002316 0.002795 0.999993
vn 0.002250 0.004186 0.999989
vn 0.004198 0.007445 0.999963
vn 0.000954 0.001991 0.999998
vn 0.000000 0.000000 1.000000
vn -0.000055 -0.000171 1.000000
vn 0.000123 0.000743 1.000000
vn 0.000000 0.000000 1.000000
vn -0.000081 0.000064 1.000000
vn 0.000000 0.000000 1.000000
vn -0.000877 0.000785 0.999999
vn -0.004616 0.002061 0.999987
vn 0.000000 0.000000 1.000000
vn 0.000126 -0.000664 1.000000
vn 0.000104 -0.000285 1.000000
vn 0.000000 0.000000 1.000000
vn 0.000000 0.000000 1.000000
vn 0.000000 0.000000 1.000000
vn 0.000000 0.000000 1.000000
vn -0.000148 0.000304 1.000000
vn -0.000481 -0.000292 1.000000
vn -0.000064 -0.000327 1.000000
vn 0.001360 0.002977 0.999995
vn 0.000000 0.000000 1.000000
vn 0.000169 -0.000258 1.000000
vn 0.000000 0.000000 1.000000
vn -0.000590 0.001297 0.999999
vn -0.000434 0.001356 0.999999
vn 0.000000 0.000000 1.000000
vn 0.000035 -0.000157 1.000000
vn 0.000000 0.000000 1.000000
vn 0.000000 0.000000 1.000000
vn 0.000000 0.000000 1.000000
vn -0.000013 -0.000049 1.000000
vn 0.000000 0.000000 1.000000
vn 0.000002 -0.000052 1.000000
vn 0.000017 -0.000075 1.000000
vn 0.003491 -0.002842 0.999990
vn -0.000733 0.000132 1.000000
vn 0.000000 0.000000 1.000000
vn -0.000037 0.001371 0.999999
vn -0.000246 0.001383 0.999999
vn 0.000025 -0.000084 1.000000
vn 0.000022 -0.000080 1.000000
vn -0.000318 -0.000018 1.000000
vn 0.000033 -0.000044 1.000000
vn -0.000149 -0.000319 1.000000
vn -0.938574 -0.334048 -0.086553
vn 0.347904 -0.219463 0.911482
vn 0.000000 0.000000 1.000000
vn 0.000213 0.000344 1.000000
vn 0.000189 0.000323 1.000000
vn -0.000185 0.000483 1.000000
vn 0.000000 0.000000 1.000000
vn 0.000006 -0.000023 1.000000
vn -0.000001 -0.000011 1.000000
vn 0.000015 0.000055 1.000000
vn 0.000000 0.000000 1.000000
vn 0.000000 0.000000 1.000000
vn 0.000000 0.000000 1.000000
vn 0.832072 -0.524664 0.179955
vn 0.831086 -0.522870 0.189479
vn -0.000681 -0.000706 1.000000
vn 0.000000 0.000000 1.000000
vn -0.000010 0.000018 1.000000
vn 0.000503 0.000035 1.000000
vn 0.000000 0.000000 1.000000
vn 0.000000 0.000000 1.000000
vn 0.000000 0.000000 1.000000
vn 0.000000 0.000000 1.000000
vn -0.000003 0.000033 1.000000
vn -0.001977 0.003182 0.999993
vn 0.012497 0.021331 0.999694
vn -0.024023 -0.019532 0.999521
vn -0.003468 0.008729 0.999956
vn -0.000027 -0.000021 1.000000
vn 0.000004 0.000003 1.000000
vn 0.000003 0.000002 1.000000
vn -0.000015 -0.000016 1.000000
vn 0.016315 0.012340 0.999791
vn 0.018558 0.014257 0.999726
vn 0.000281 0.000373 1.000000
vn 0.001011 -0.000886 0.999999
vn -0.000008 0.000015 1.000000
vn 0.000011 -0.000021 -1.000000
vn -0.000008 0.000013 1.000000
vn 0.003737 0.000708 0.999993
vn 0.000115 0.004902 0.999988
vn -0.013121 0.028463 0.999509
vn -0.010918 0.023299 0.999669
vn -0.000897 0.002976 0.999995
vn 0.002566 -0.002303 0.999994
vn -0.004783 0.005307 0.999974
vn -0.002174 0.003741 0.999991
vn 0.000000 0.000000 1.000000
vn 0.000000 0.000000 1.000000
vn 0.000000 0.000000 1.000000
vn 0.000000 0.000000 1.000000
vn 0.000000 0.000000 1.000000
vn 0.000000 0.000000 1.000000
vn 0.000000 0.000000 1.000000
vn 0.000000 0.000000 1.000000
vn 0.000000 0.000000 1.000000
vn 0.000042 -0.000038 1.000000
vn 0.000000 0.000000 1.000000
vn 0.000000 0.000000 1.000000
vn 0.000000 0.000000 1.000000
vn 0.000000 0.000000 1.000000
vn 0.000000 0.000000 1.000000
vn 0.000000 0.000000 1.000000
vn 0.000000 0.000000 1.000000
vn 0.000000 0.000000 1.000000
vn 0.000179 0.000313 1.000000
vn 0.000170 0.000301 1.000000
vn 0.005215 0.009089 0.999945
vn 0.001448 0.002520 0.999996
vn -0.128311 -0.248224 0.960167
vn 0.000085 0.000165 1.000000
vn 0.002534 -0.002651 0.999993
vn 0.000000 0.000000 1.000000
vn -0.000003 -0.000007 1.000000
vn 0.000029 -0.000141 1.000000
vn 0.000002 0.000011 1.000000
vn 0.000117 -0.000222 1.000000
vn 0.000189 -0.000261 1.000000
vn 0.000366 -0.000219 1.000000
vn 0.000368 -0.000220 1.000000
vn 0.000324 -0.000252 1.000000
vn 0.000351 -0.000231 1.000000
vn 0.000033 0.000015 1.000000
vn 0.000032 -0.000057 1.000000
vn 0.000249 -0.000270 1.000000
vn 0.000295 -0.000263 1.000000
vn 0.000390 -0.000185 1.000000
vn 0.000414 -0.000118 1.000000
vn 0.000032 0.001116 0.999999
vn 0.000141 0.000056 1.000000
vn 0.000366 -0.000218 1.000000
vn 0.000123 0.000194 1.000000
vn 0.000755 -0.000206 1.000000
vn 0.000054 -0.000147 1.000000
vn 0.000375 -0.000211 1.000000
vn 0.000041 0.000046 1.000000
vn 0.000047 0.000057 1.000000
vn 0.000365 -0.000217 1.000000
vn 0.000236 -0.000079 1.000000
vn 0.000195 0.000345 1.000000
vn 0.000103 0.000163 1.000000
vn 0.000029 0.000026 1.000000
vn -0.000056 -0.000319 1.000000
vn 0.000000 0.000000 1.000000
vn 0.000000 0.000000 1.000000
vn 0.000000 0.000000 1.000000
vn 0.000000 0.000000 1.000000
vn 0.000000 0.000000 1.000000
vn 0.001265 0.001324 0.999998
vn 0.000135 0.000255 1.000000
vn 0.000119 0.000182 1.000000
vn 0.014887 0.011264 0.999826
vn 0.015705 0.011879 0.999806
vn 0.000192 0.000390 1.000000
vn 0.000625 0.000517 1.000000
vn 0.014394 0.010855 0.999837
vn 0.000086 0.000114 1.000000
vn 0.000000 0.000000 1.000000
vn 0.000000 0.000000 1.000000
vn 0.000144 0.000233 1.000000
vn 0.000000 0.000000 1.000000
vn -0.000006 -0.000006 1.000000
vn -0.000004 -0.000015 1.000000
vn 0.000000 0.000000 1.000000
vn 0.000000 0.000000 1.000000
vn -0.000019 -0.000027 1.000000
vn -0.000013 -0.000017 1.000000
vn 0.000000 0.000000 1.000000
vn -0.000024 -0.000035 1.000000
vn 0.000000 0.000000 1.000000
vn 0.000000 0.000000 1.000000
vn 0.000144 0.000233 1.000000
vn 0.000000 0.000000 1.000000
vn 0.000144 0.000233 1.000000
vn -0.000092 0.000241 1.000000
vn 0.000000 0.000000 1.000000
vn 0.000000 0.000000 1.000000
vn 0.000000 0.000000 1.000000
vn 0.000911 -0.005838 0.999983
vn 0.001082 -0.005813 0.999983
vn 0.000931 -0.005837 0.999983
vn 0.001128 -0.005636 0.999983
vn 0.539809 -0.339959 0.770087
vn 0.000450 -0.001249 0.999999
vn 0.000372 -0.000282 1.000000
vn 0.013605 -0.010155 0.999856
vn -0.000010 -0.000122 1.000000
vn -0.000038 -0.000059 1.000000
vn -0.000195 0.000415 1.000000
vn -0.000324 -0.000366 1.000000
vn 0.000628 0.001896 0.999998
vn 0.000129 0.000997 0.999999
vn -0.000457 -0.000599 1.000000
vn -0.000552 -0.000764 1.000000
vn 0.002908 0.004682 0.999985
vn -0.000165 -0.000726 1.000000
vn -0.000691 0.005783 0.999983
vn -0.000867 0.007405 0.999972
vn 0.000842 -0.002883 0.999995
vn 0.000780 0.009220 0.999957
vn -0.000497 -0.000963 0.999999
vn 0.000764 0.001335 0.999999
vn -0.000537 0.001392 0.999999
vn -0.000285 0.001026 0.999999
vn -0.000534 0.000315 1.000000
vn -0.001942 -0.002304 0.999995
vn -0.000741 -0.000030 1.000000
vn -0.001717 0.003318 0.999993
vn 0.000403 0.007473 0.999972
vn -0.000478 0.003797 0.999993
vn -0.000688 -0.000333 1.000000
vn -0.000571 0.006507 0.999979
vn -0.000404 0.002089 0.999998
vn -0.001372 -0.002536 0.999996
vn -0.001248 0.004541 0.999989
vn 0.000002 -0.000038 1.000000
vn 0.000008 -0.000004 1.000000
vn -0.000015 0.000006 1.000000
vn 0.000000 0.000000 1.000000
vn 0.000000 0.000000 1.000000
vn 0.000051 -0.000035 1.000000
vn -0.000018 0.000006 1.000000
vn -0.000017 0.000007 1.000000
vn -0.015480 -0.035241 0.999259
vn -0.007867 -0.032411 0.999444
vn -0.013425 0.001916 0.999908
vn -0.010291 -0.000806 0.999947
vn 0.000080 -0.000167 1.000000
vn 0.000131 -0.000244 1.000000
vn -0.000002 0.000003 1.000000
vn 0.001129 0.000120 0.999999
vn 0.001224 -0.005459 0.999984
vn -0.000490 -0.003137 0.999995
vn 0.000934 -0.005329 0.999985
vn 0.001140 -0.005309 0.999985
vn -0.001573 -0.002426 0.999996
vn -0.001302 -0.002602 0.999996
vn -0.001716 -0.002290 0.999996
vn 0.001867 -0.005137 0.999985
vn 0.001960 -0.005106 0.999985
vn 0.000522 -0.005317 0.999986
vn -0.001024 -0.003655 0.999993
vn -0.000571 -0.005267 0.999986
vn -0.005254 -0.002109 0.999984
vn -0.002293 -0.001537 0.999996
vn 0.001719 -0.005174 0.999985
vn 0.001684 0.003482 0.999993
vn -0.001670 -0.001234 0.999998
vn -0.001446 -0.001195 0.999998
vn 0.005247 -0.001790 0.999985
vn 0.005539 -0.000351 0.999985
vn 0.001074 -0.005335 0.999985
vn 0.010548 -0.001108 0.999944
vn 0.015366 0.003364 0.999876
vn -0.001238 0.000576 0.999999
vn 0.010247 0.002971 0.999943
vn 0.001424 -0.008020 0.999967
vn 0.012236 0.003030 0.999921
vn -0.000280 -0.000183 1.000000
vn 0.001734 0.004771 0.999987
vn 0.002480 -0.006651 0.999975
vn 0.000919 -0.005341 0.999985
vn 0.003913 0.003564 0.999986
vn 0.003129 0.004229 0.999986
vn 0.005081 0.001729 0.999986
vn 0.001530 -0.005229 0.999985
vn 0.000339 -0.000244 1.000000
vn 0.000360 -0.000223 1.000000
vn 0.000044 -0.000033 1.000000
vn 0.000059 -0.000118 1.000000
vn 0.000282 -0.000266 1.000000
vn 0.000313 -0.000259 1.000000
vn 0.000105 -0.000199 1.000000
vn 0.000309 -0.000180 1.000000
vn 0.000370 -0.000219 1.000000
vn 0.000381 -0.000203 1.000000
vn 0.000046 0.000023 1.000000
vn 0.000398 -0.000172 1.000000
vn 0.000174 -0.000249 1.000000
vn 0.000232 -0.000269 1.000000
vn 0.000092 0.000117 1.000000
vn 0.000127 0.000022 1.000000
vn 0.000366 -0.000217 1.000000
vn 0.000367 -0.000218 1.000000
vn 0.000121 0.000181 1.000000
vn 0.001274 0.000397 0.999999
vn 0.000052 0.000042 1.000000
vn 0.000367 -0.000219 1.000000
vn -0.000062 -0.000233 1.000000
vn 0.000556 0.001739 0.999998
vn -0.000007 0.000018 1.000000
vn -0.000015 -0.000011 1.000000
vn 0.000066 0.000063 1.000000
vn 0.000044 0.000013 1.000000
vn 0.000055 0.000126 1.000000
vn 0.000072 0.000117 1.000000
vn 0.000072 0.000117 1.000000
vn 0.000071 0.000093 1.000000
vn 0.000000 0.000000 1.000000
vn 0.000000 0.000000 1.000000
vn 0.000019 -0.000028 1.000000
f 51//51 52//52 308//308
f 51//51 308//308 297//297
f 38//38 43//43 45//45
f 38//38 45//45 42//42
f 38//38 42//42 41//41
f 38//38 41//41 40//40
f 38//38 40//40 44//44
f 38//38 44//44 39//39
f 333//333 335//335 234//234
f 333//333 234//234 309//309
f 310//310 309//309 234//234
f 310//310 234//234 236//236
f 310//310 236//236 137//137
f 310//310 137//137 133//133
f 3//3 2//2 474//474
f 3//3 474//474 475//475
f 2//2 6//6 476//476
f 2//2 476//476 474//474
f 8//8 3//3 475//475
f 8//8 475//475 477//477
f 260//260 259//259 5//5
f 260//260 5//5 4//4
f 260//260 4//4 233//233
f 260//260 233//233 334//334
f 233//233 4//4 7//7
f 302//302 240//240 239//239
f 302//302 239//239 303//303
f 317//317 305//305 304//304
f 317//317 304//304 303//303
f 318//318 317//317 303//303
f 318//318 303//303 239//239
f 318//318 239//239 132//132
f 318//318 132//132 322//322
f 322//322 185//185 184//184
f 322//322 184//184 324//324
f 324//324 184//184 188//188
f 324//324 188//188 325//325
f 324//324 323//323 322//322
f 325//325 188//188 174//174
f 325//325 174//174 332//332
f 332//332 174//174 163//163
f 332//332 163//163 331//331
f 331//331 163//163 162//162
f 331//331 162//162 258//258
f 258//258 162//162 165//165
f 297//297 308//308 301//301
f 297//297 301//301 298//298
f 266//266 265//265 245//245
f 266//266 245//245 244//244
f 270//270 269//269 246//246
f 270//270 246//246 155//155
f 246//246 269//269 266//266
f 246//246 266//266 244//244
f 245//245 265//265 337//337
f 245//245 337//337 478//478
f 478//478 243//243 61//61
f 478//478 61//61 245//245
f 294//294 110//110 109//109
f 294//294 109//109 283//283
f 293//293 399//399 110//110
f 293//293 110//110 294//294
f 328//328 398//398 338//338
f 338//338 398//398 399//399
f 338//338 399//399 293//293
f 275//275 385//385 296//296
f 279//279 278//278 288//288
f 279//279 288//288 274//274
f 268//268 267//267 276//276
f 268//268 276//276 271//271
f 276//276 267//267 282//282
f 281//281 280//280 479//479
f 281//281 479//479 480//480
f 280//280 268//268 481//481
f 280//280 481//481 479//479
f 272//272 281//281 480//480
f 272//272 480//480 482//482
f 482//482 480//480 157//157
f 482//482 157//157 483//483
f 272//272 454//454 453//453
f 272//272 453//453 273//273
f 286//286 458//458 357//357
f 286//286 357//357 287//287
f 484//484 277//277 273//273
f 484//484 273//273 485//485
f 486//486 487//487 488//488
f 486//486 488//488 489//489
f 289//289 490//490 491//491
f 289//289 491//491 286//286
f 487//487 484//484 485//485
f 487//487 485//485 488//488
f 295//295 277//277 484//484
f 295//295 484//484 292//292
f 292//292 484//484 487//487
f 292//292 487//487 290//290
f 291//291 486//486 490//490
f 291//291 490//490 284//284
f 289//289 285//285 490//490
f 284//284 490//490 285//285
f 312//312 468//468 466//466
f 312//312 466//466 321//321
f 307//307 351//351 327//327
f 311//311 407//407 468//468
f 311//311 468//468 312//312
f 261//261 329//329 492//492
f 261//261 492//492 493//493
f 262//262 261//261 493//493
f 262//262 493//493 494//494
f 407//407 311//311 495//495
f 407//407 495//495 496//496
f 311//311 326//326 497//497
f 311//311 497//497 495//495
f 316//316 315//315 498//498
f 316//316 498//498 499//499
f 299//299 327//327 500//500
f 299//299 500//500 501//501
f 315//315 264//264 502//502
f 315//315 502//502 498//498
f 263//263 300//300 503//503
f 263//263 503//503 504//504
f 264//264 263//263 504//504
f 264//264 504//504 502//502
f 329//329 330//330 505//505
f 329//329 505//505 492//492
f 326//326 262//262 494//494
f 326//326 494//494 497//497
f 327//327 351//351 506//506
f 327//327 506//506 500//500
f 300//300 299//299 501//501
f 300//300 501//501 503//503
f 330//330 316//316 499//499
f 330//330 499//499 505//505
f 500//500 506//506 496//496
f 500//500 496//496 501//501
f 501//501 496//496 507//507
f 501//501 507//507 503//503
f 504//504 503//503 507//507
f 504//504 507//507 508//508
f 494//494 509//509 508//508
f 494//494 508//508 497//497
f 502//502 509//509 510//510
f 502//502 510//510 498//498
f 505//505 499//499 498//498
f 505//505 498//498 510//510
f 508//508 507//507 495//495
f 508//508 495//495 497//497
f 508//508 509//509 502//502
f 508//508 502//502 504//504
f 510//510 509//509 494//494
f 510//510 494//494 493//493
f 507//507 496//496 495//495
f 493//493 492//492 505//505
f 493//493 505//505 510//510
f 272//272 482//482 483//483
f 272//272 483//483 454//454
f 341//341 122//122 470//470
f 341//341 470//470 342//342
f 290//290 487//487 486//486
f 290//290 486//486 291//291
f 490//490 486//486 489//489
f 490//490 489//489 491//491
f 349//349 478//478 337//337
f 346//346 348//348 473//473
f 346//346 473//473 347//347
f 344//344 343//343 511//511
f 344//344 511//511 512//512
f 320//320 319//319 513//513
f 320//320 513//513 345//345
f 306//306 345//345 352//352
f 319//319 314//314 514//514
f 319//319 514//514 515//515
f 314//314 313//313 516//516
f 314//314 516//516 514//514
f 513//513 319//319 515//515
f 513//513 515//515 517//517
f 517//517 518//518 513//513
f 19//19 12//12 11//11
f 19//19 11//11 21//21
f 21//21 11//11 22//22
f 36//36 20//20 23//23
f 36//36 23//23 27//27
f 28//28 27//27 23//23
f 36//36 26//26 20//20
f 26//26 22//22 11//11
f 26//26 11//11 20//20
f 35//35 17//17 20//20
f 35//35 20//20 11//11
f 35//35 34//34 17//17
f 25//25 18//18 17//17
f 25//25 17//17 34//34
f 25//25 16//16 18//18
f 37//37 18//18 16//16
f 37//37 16//16 15//15
f 24//24 18//18 33//33
f 10//10 9//9 37//37
f 37//37 9//9 33//33
f 37//37 33//33 18//18
f 32//32 33//33 9//9
f 31//31 30//30 32//32
f 31//31 32//32 9//9
f 29//29 13//13 31//31
f 29//29 31//31 9//9
f 13//13 29//29 14//14
f 50//50 47//47 214//214
f 50//50 214//214 255//255
f 355//355 390//390 385//385
f 355//355 385//385 275//275
f 165//165 336//336 258//258
f 54//54 5//5 259//259
f 350//350 243//243 478//478
f 350//350 478//478 349//349
f 143//143 141//141 367//367
f 143//143 367//367 409//409
f 191//191 373//373 372//372
f 191//191 372//372 96//96
f 191//191 96//96 62//62
f 191//191 62//62 55//55
f 112//112 408//408 366//366
f 112//112 366//366 113//113
f 435//435 405//405 248//248
f 193//193 519//519 520//520
f 193//193 520//520 194//194
f 195//195 362//362 521//521
f 195//195 521//521 196//196
f 198//198 522//522 519//519
f 198//198 519//519 193//193
f 196//196 521//521 522//522
f 196//196 522//522 198//198
f 194//194 520//520 361//361
f 194//194 361//361 197//197
f 363//363 380//380 378//378
f 363//363 378//378 377//377
f 363//363 377//377 376//376
f 363//363 376//376 375//375
f 363//363 375//375 382//382
f 363//363 382//382 381//381
f 363//363 381//381 379//379
f 363//363 379//379 360//360
f 362//362 361//361 520//520
f 362//362 520//520 519//519
f 362//362 519//519 522//522
f 362//362 522//522 521//521
f 220//220 223//223 222//222
f 220//220 222//222 219//219
f 220//220 219//219 218//218
f 220//220 218//218 231//231
f 220//220 231//231 230//230
f 220//220 230//230 227//227
f 220//220 227//227 226//226
f 220//220 226//226 232//232
f 220//220 232//232 229//229
f 220//220 229//229 228//228
f 220//220 228//228 225//225
f 220//220 225//225 224//224
f 220//220 224//224 221//221
f 79//79 154//154 153//153
f 79//79 153//153 86//86
f 86//86 153//153 171//171
f 130//130 237//237 238//238
f 130//130 238//238 57//57
f 130//130 57//57 56//56
f 130//130 56//56 131//131
f 127//127 114//114 131//131
f 127//127 131//131 56//56
f 67//67 119//119 102//102
f 67//67 102//102 101//101
f 67//67 101//101 121//121
f 67//67 121//121 115//115
f 67//67 115//115 114//114
f 67//67 114//114 127//127
f 67//67 127//127 68//68
f 137//137 236//236 235//235
f 137//137 235//235 138//138
f 142//142 138//138 235//235
f 1//1 310//310 133//133
f 151//151 150//150 523//523
f 151//151 523//523 524//524
f 169//169 151//151 524//524
f 169//169 524//524 313//313
f 150//150 167//167 525//525
f 150//150 525//525 523//523
f 167//167 166//166 526//526
f 167//167 526//526 525//525
f 6//6 126//126 527//527
f 6//6 527//527 476//476
f 175//175 179//179 528//528
f 181//181 116//116 529//529
f 181//181 529//529 530//530
f 129//129 128//128 531//531
f 129//129 531//531 532//532
f 182//182 176//176 528//528
f 182//182 528//528 533//533
f 170//170 178//178 534//534
f 170//170 534//534 535//535
f 116//116 70//70 536//536
f 116//116 536//536 529//529
f 179//179 92//92 528//528
f 69//69 136//136 537//537
f 69//69 537//537 538//538
f 103//103 97//97 539//539
f 103//103 539//539 540//540
f 89//89 88//88 449//449
f 89//89 449//449 371//371
f 70//70 69//69 538//538
f 70//70 538//538 536//536
f 126//126 156//156 541//541
f 126//126 541//541 527//527
f 166//166 168//168 542//542
f 166//166 542//542 526//526
f 98//98 104//104 543//543
f 98//98 543//543 544//544
f 87//87 78//78 545//545
f 87//87 545//545 546//546
f 92//92 89//89 371//371
f 92//92 371//371 528//528
f 72//72 71//71 547//547
f 72//72 547//547 548//548
f 73//73 72//72 548//548
f 73//73 548//548 549//549
f 88//88 94//94 550//550
f 88//88 550//550 449//449
f 75//75 74//74 551//551
f 75//75 551//551 552//552
f 74//74 80//80 553//553
f 74//74 553//553 551//551
f 97//97 96//96 554//554
f 97//97 554//554 539//539
f 168//168 91//91 555//555
f 168//168 555//555 542//542
f 76//76 75//75 552//552
f 76//76 552//552 556//556
f 156//156 170//170 535//535
f 156//156 535//535 541//541
f 71//71 93//93 557//557
f 71//71 557//557 547//547
f 94//94 98//98 544//544
f 94//94 544//544 550//550
f 78//78 76//76 556//556
f 78//78 556//556 545//545
f 90//90 85//85 558//558
f 90//90 558//558 559//559
f 104//104 103//103 540//540
f 104//104 540//540 543//543
f 80//80 73//73 549//549
f 80//80 549//549 553//553
f 128//128 182//182 533//533
f 128//128 533//533 531//531
f 85//85 84//84 560//560
f 85//85 560//560 558//558
f 178//178 177//177 561//561
f 178//178 561//561 534//534
f 84//84 87//87 546//546
f 84//84 546//546 560//560
f 177//177 181//181 530//530
f 177//177 530//530 561//561
f 136//136 129//129 532//532
f 136//136 532//532 537//537
f 91//91 90//90 559//559
f 91//91 559//559 555//555
f 176//176 175//175 528//528
f 93//93 8//8 477//477
f 93//93 477//477 557//557
f 7//7 95//95 139//139
f 7//7 139//139 233//233
f 140//140 139//139 95//95
f 107//107 185//185 322//322
f 107//107 322//322 132//132
f 108//108 107//107 132//132
f 108//108 132//132 125//125
f 108//108 125//125 118//118
f 108//108 118//118 117//117
f 108//108 117//117 120//120
f 77//77 83//83 51//51
f 77//77 51//51 297//297
f 147//147 146//146 155//155
f 61//61 60//60 242//242
f 61//61 242//242 245//245
f 155//155 246//246 192//192
f 155//155 192//192 147//147
f 247//247 283//283 109//109
f 247//247 109//109 111//111
f 247//247 111//111 149//149
f 247//247 149//149 148//148
f 247//247 148//148 164//164
f 247//247 164//164 159//159
f 247//247 159//159 158//158
f 247//247 158//158 180//180
f 247//247 180//180 145//145
f 247//247 145//145 144//144
f 398//398 395//395 399//399
f 400//400 399//399 395//395
f 400//400 395//395 394//394
f 389//389 386//386 385//385
f 389//389 385//385 390//390
f 365//365 187//187 113//113
f 365//365 113//113 366//366
f 134//134 364//364 367//367
f 134//134 367//367 141//141
f 409//409 411//411 152//152
f 409//409 152//152 143//143
f 112//112 82//82 408//408
f 81//81 434//434 82//82
f 99//99 364//364 134//134
f 99//99 134//134 100//100
f 187//187 365//365 173//173
f 187//187 173//173 186//186
f 135//135 186//186 173//173
f 173//173 172//172 135//135
f 82//82 434//434 410//410
f 82//82 410//410 408//408
f 417//417 416//416 562//562
f 417//417 562//562 563//563
f 419//419 418//418 564//564
f 419//419 564//564 565//565
f 421//421 420//420 566//566
f 421//421 566//566 567//567
f 429//429 419//419 565//565
f 429//429 565//565 568//568
f 434//434 423//423 569//569
f 434//434 569//569 410//410
f 430//430 415//415 570//570
f 430//430 570//570 571//571
f 418//418 431//431 572//572
f 418//418 572//572 564//564
f 423//423 422//422 573//573
f 423//423 573//573 569//569
f 422//422 430//430 571//571
f 422//422 571//571 573//573
f 413//413 412//412 574//574
f 413//413 574//574 575//575
f 425//425 424//424 576//576
f 425//425 576//576 577//577
f 426//426 433//433 578//578
f 426//426 578//578 579//579
f 420//420 413//413 575//575
f 420//420 575//575 566//566
f 428//428 427//427 580//580
f 428//428 580//580 581//581
f 433//433 417//417 563//563
f 433//433 563//563 578//578
f 412//412 429//429 568//568
f 412//412 568//568 574//574
f 432//432 425//425 577//577
f 432//432 577//577 582//582
f 414//414 426//426 579//579
f 414//414 579//579 583//583
f 416//416 421//421 567//567
f 416//416 567//567 562//562
f 431//431 432//432 582//582
f 431//431 582//582 572//572
f 415//415 414//414 583//583
f 415//415 583//583 570//570
f 64//64 584//584 249//249
f 64//64 249//249 63//63
f 63//63 249//249 124//124
f 63//63 124//124 123//123
f 392//392 438//438 584//584
f 392//392 584//584 64//64
f 584//584 438//438 251//251
f 584//584 251//251 250//250
f 249//249 584//584 250//250
f 391//391 439//439 438//438
f 391//391 438//438 392//392
f 396//396 441//441 439//439
f 396//396 439//439 391//391
f 396//396 384//384 441//441
f 383//383 442//442 441//441
f 383//383 441//441 384//384
f 383//383 393//393 397//397
f 383//383 397//397 442//442
f 388//388 442//442 397//397
f 444//444 428//428 581//581
f 444//444 581//581 585//585
f 424//424 444//444 585//585
f 424//424 585//585 576//576
f 436//436 445//445 402//402
f 436//436 402//402 339//339
f 404//404 435//435 340//340
f 404//404 340//340 401//401
f 404//404 403//403 405//405
f 404//404 405//405 435//435
f 105//105 241//241 59//59
f 105//105 59//59 58//58
f 105//105 58//58 183//183
f 105//105 183//183 66//66
f 105//105 66//66 65//65
f 105//105 65//65 135//135
f 105//105 135//135 172//172
f 105//105 172//172 190//190
f 105//105 190//190 189//189
f 105//105 189//189 106//106
f 161//161 160//160 369//369
f 161//161 369//369 368//368
f 253//253 252//252 448//448
f 253//253 448//448 447//447
f 252//252 161//161 368//368
f 252//252 368//368 448//448
f 53//53 253//253 447//447
f 53//53 447//447 451//451
f 544//544 543//543 450//450
f 544//544 450//450 449//449
f 449//449 550//550 544//544
f 543//543 540//540 354//354
f 543//543 354//354 450//450
f 554//554 354//354 540//540
f 554//554 540//540 539//539
f 370//370 533//533 528//528
f 370//370 528//528 371//371
f 533//533 370//370 531//531
f 532//532 531//531 370//370
f 537//537 532//532 370//370
f 554//554 96//96 372//372
f 554//554 372//372 374//374
f 374//374 353//353 554//554
f 359//359 358//358 586//586
f 359//359 586//586 157//157
f 157//157 586//586 587//587
f 157//157 587//587 483//483
f 457//457 485//485 273//273
f 457//457 273//273 453//453
f 461//461 489//489 488//488
f 461//461 488//488 462//462
f 458//458 286//286 491//491
f 458//458 491//491 464//464
f 462//462 488//488 485//485
f 462//462 485//485 457//457
f 587//587 466//466 454//454
f 587//587 454//454 483//483
f 587//587 586//586 321//321
f 587//587 321//321 466//466
f 586//586 358//358 321//321
f 351//351 407//407 496//496
f 351//351 496//496 506//506
f 459//459 440//440 387//387
f 459//459 387//387 356//356
f 440//440 459//459 465//465
f 440//440 465//465 443//443
f 342//342 470//470 465//465
f 342//342 465//465 471//471
f 472//472 465//465 470//470
f 465//465 472//472 443//443
f 464//464 491//491 489//489
f 464//464 489//489 461//461
f 460//460 473//473 342//342
f 460//460 342//342 471//471
f 456//456 437//437 347//347
f 456//456 347//347 463//463
f 460//460 463//463 347//347
f 460//460 347//347 473//473
f 446//446 445//445 436//436
f 446//446 436//436 588//588
f 343//343 437//437 589//589
f 343//343 589//589 511//511
f 436//436 344//344 512//512
f 436//436 512//512 588//588
f 452//452 589//589 437//437
f 452//452 437//437 456//456
f 160//160 254//254 369//369
f 469//469 406//406 590//590
f 469//469 590//590 591//591
f 455//455 467//467 592//592
f 455//455 592//592 593//593
f 406//406 352//352 345//345
f 406//406 345//345 590//590
f 452//452 455//455 593//593
f 452//452 593//593 589//589
f 467//467 469//469 591//591
f 467//467 591//591 592//592
f 523//523 516//516 313//313
f 523//523 313//313 524//524
f 526//526 516//516 523//523
f 526//526 523//523 525//525
f 590//590 345//345 513//513
f 590//590 513//513 518//518
f 592//592 591//591 594//594
f 592//592 594//594 595//595
f 593//593 592//592 595//595
f 593//593 595//595 596//596
f 589//589 593//593 596//596
f 589//589 596//596 511//511
f 591//591 590//590 518//518
f 591//591 518//518 594//594
f 216//216 207//207 49//49
f 216//216 49//49 48//48
f 49//49 207//207 209//209
f 209//209 207//207 204//204
f 209//209 204//204 203//203
f 207//207 206//206 204//204
f 210//210 216//216 48//48
f 211//211 210//210 213//213
f 211//211 213//213 217//217
f 212//212 211//211 217//217
f 48//48 213//213 210//210
f 213//213 48//48 255//255
f 213//213 255//255 214//214
f 208//208 214//214 47//47
f 208//208 47//47 46//46
f 202//202 215//215 214//214
f 202//202 214//214 208//208
f 201//201 199//199 215//215
f 201//201 215//215 202//202
f 201//201 205//205 200//200
f 201//201 200//200 199//199
f 256//256 283//283 247//247
f 257//257 248//248 405//405
