# Generated by scripts/generate_campus_collision.py
# Source materials: Pavement
o pavement_surface_collision
v -124.498520 27.769890 0.000000
v -124.611313 27.761665 0.000000
v -86.583038 68.357712 0.000000
v 17.653248 42.379982 0.200000
v 22.307755 35.395149 0.200000
v 20.137604 42.778633 0.200000
v 17.688850 42.225449 0.200000
v 80.789543 47.900757 0.200000
v 79.541176 46.114449 0.200000
v 53.628342 34.368362 0.200000
v -86.542770 68.249191 0.001419
v -14.307274 61.631809 -0.000094
v -81.023880 69.161942 0.000000
v -81.023849 69.161949 0.200000
v -130.684418 13.920994 0.000000
v 108.085327 -149.633514 0.201237
v 113.804405 -143.805298 0.201235
v 106.895981 -138.368652 0.200000
v 102.175079 -143.106537 0.200000
v 122.843605 -132.296417 0.201233
v 126.596176 -126.037148 0.201232
v 140.652145 -88.041321 0.200000
v 137.951996 -92.220627 0.200000
v 21.960629 24.705893 0.200000
v 156.589691 -63.355782 0.201237
v 145.819168 -56.910072 0.200000
v 147.495865 -60.304276 0.200000
v 101.047096 19.906960 0.201253
v 121.810509 -37.355331 0.200000
v 124.505867 -34.251587 0.200000
v 139.599442 -48.916039 0.200000
v 147.407394 -91.324089 0.201226
v 152.326263 -81.750877 0.201232
v 148.190094 -71.255447 0.200000
v 145.108643 -79.300171 0.200000
v 148.583206 -64.028053 0.200000
v 155.876663 -72.852219 0.201232
v 80.977539 -110.821251 0.204549
v 4.448589 65.370323 0.201214
v -81.007217 69.063286 0.200000
v 99.421303 19.398998 0.201242
v 53.648972 34.377522 0.201294
v 51.665955 34.399471 0.201275
v 125.252762 -33.933746 0.200000
v 125.969193 -34.255127 0.200000
v 49.413750 -142.219971 0.201282
v 52.807877 -144.100250 0.201281
v 59.141335 -147.532257 0.201276
v 61.619396 -149.133820 0.201283
v 80.349564 -150.197998 0.200000
v 70.991066 -154.911407 0.201280
v 78.837555 -158.552002 0.201269
v 87.391739 -150.787109 0.200000
v 87.877319 -158.936462 0.201256
v 98.356361 -146.336456 0.200000
v 93.616234 -149.152863 0.200000
v 95.780167 -157.196777 0.201247
v 102.176582 -153.934723 0.201241
v 50.704346 35.125542 0.201258
v 49.361465 37.021320 0.201203
v 111.232040 -132.814178 0.200000
v 118.594551 -138.250946 0.201234
v 115.535866 -126.916298 0.200000
v 73.364883 10.566380 0.224476
v 71.961044 9.954851 0.218462
v 69.201981 10.540077 0.230583
v 56.656452 18.355278 0.241429
v 85.213242 37.619228 0.145022
v 86.891365 37.877640 0.161311
v 82.804359 17.191179 0.204416
v 94.417686 25.807789 0.199856
v 55.935707 20.628792 0.224639
v 55.892784 21.810505 0.187741
v 95.580399 26.903732 0.159268
v 58.165428 25.102646 0.187873
v 128.783707 -122.388344 0.201231
v 133.329742 -114.805595 0.201230
v 119.230164 -121.382545 0.001270
v 119.143883 -121.331795 0.200000
v 144.766632 -95.728859 0.201227
v 126.257858 -110.320824 0.200000
v 121.848969 -117.144890 0.200000
v -15.757462 61.232208 0.200005
v 95.383484 -18.245247 0.201273
v 95.392281 -18.265816 0.000000
v 95.308090 -18.323338 0.200000
v 107.431854 -27.199383 0.000000
v 76.690453 -117.687309 0.209592
v 16.945263 -122.151894 0.201308
v 29.855915 -130.131836 0.165008
v 107.378525 -27.279121 0.005084
v -130.611816 13.837593 0.000000
v -16.084206 63.141998 0.000000
v 121.933861 -117.197762 0.000000
v 97.044975 -22.133125 0.000000
v 97.541573 -22.656826 0.000000
v 106.227455 -27.197586 0.000000
v 105.304642 -26.987804 0.000000
v 101.611374 -24.927349 0.000000
v 119.455956 -121.033043 0.000000
v -14.653122 63.412155 0.000000
v 121.693085 -117.570442 0.000000
v -75.949356 54.852230 0.200000
v -80.907227 53.062466 0.200000
v -80.084717 50.853920 0.200000
v -75.214310 52.786911 0.200000
v -85.428192 50.172268 0.200000
v -82.420044 49.719616 0.200000
v -33.430595 34.995972 0.200000
v -41.879669 38.035339 0.200000
v -42.106834 37.061447 0.200000
v -33.714554 34.035847 0.200000
v -67.928574 33.486782 0.200000
v -71.873032 31.504456 0.200000
v -71.372429 30.636868 0.200000
v -67.508423 32.578751 0.200000
v 77.725105 -14.328098 0.200000
v 86.836685 -18.822006 0.200000
v 78.270142 -13.489449 0.200000
v 36.094627 -11.473385 0.200000
v 48.544312 -18.892887 0.200000
v 49.065582 -18.039429 0.200000
v 35.775749 -10.119232 0.200000
v 44.889080 5.717762 0.200000
v 47.493214 5.304731 0.200000
v 44.562462 7.094423 0.200000
v 38.616058 -4.553726 0.200000
v 37.234711 -4.872143 0.200000
v 29.143248 -49.119331 0.200000
v 16.693558 -41.699829 0.200000
v 15.293724 -42.029701 0.200000
v 29.462393 -50.473648 0.200000
v 136.233490 -65.031158 0.200000
v 131.405457 -62.027832 0.200000
v 130.127167 -64.258171 0.200000
v 135.787262 -67.783394 0.200000
v 71.103592 -24.516487 0.200000
v 69.715309 -24.830593 0.200000
v 35.547504 -39.138641 0.200000
v 35.866257 -40.493568 0.200000
v 110.365395 -48.939659 0.200000
v 106.484077 -55.004211 0.200000
v 107.871490 -54.691505 0.200000
v 109.836700 -51.620811 0.200000
v 23.097836 -31.719151 0.200000
v 27.900829 -24.233963 0.200000
v 27.059284 -23.693779 0.200000
v 22.017025 -31.551834 0.200000
v 67.222305 -30.581028 0.200000
v 66.913635 -29.208225 0.200000
v 98.907242 -27.513664 0.200000
v 105.033524 -31.327164 0.200000
v 105.333740 -30.336163 0.200000
v 99.322197 -26.594055 0.200000
v 98.435822 -67.328133 0.200000
v 91.368370 -62.931755 0.200000
v 90.821442 -63.769218 0.200000
v 97.888916 -68.165581 0.200000
v 124.871628 -108.454369 0.200000
v 113.500137 -101.022697 0.200000
v 112.111221 -101.319359 0.200000
v 125.414894 -109.782784 0.200000
v 144.199905 -78.882889 0.200000
v 137.088943 -91.713715 0.200000
v 139.784454 -87.541588 0.200000
v 127.796242 -68.325249 0.200000
v 128.297607 -67.449463 0.200000
v 133.449310 -71.858658 0.200000
v 144.628113 -77.759041 0.200000
v 133.990875 -71.005424 0.200000
v 124.780151 -83.775131 0.200000
v 123.384232 -84.082520 0.200000
v 82.940002 -57.688805 0.200000
v 73.652351 -51.911324 0.200000
v 73.105423 -52.748787 0.200000
v 82.393066 -58.526268 0.200000
v 59.174046 -42.904953 0.200000
v 58.627129 -43.742432 0.200000
v 116.859329 -38.688583 0.200000
v 120.899017 -40.019066 0.200000
v 117.394478 -37.843788 0.200000
v 40.350479 -31.653458 0.200000
v 40.668945 -33.008842 0.200000
v 142.643417 -54.738777 0.200000
v 143.334473 -55.345039 0.200000
v -93.960709 38.110691 0.200000
v -87.208878 44.408978 0.200000
v -88.564392 45.429394 0.200000
v -94.866943 39.233738 0.200000
v 8.256664 28.299915 0.200000
v 12.186897 29.333586 0.200000
v 12.716427 30.182051 0.200000
v 9.084183 29.551563 0.200000
v -77.506546 27.999958 0.200000
v -82.771042 23.449848 0.200000
v -82.166443 22.653221 0.200000
v -77.000854 27.130226 0.200000
v 7.583939 32.897900 0.200000
v 8.710419 32.106216 0.200000
v -81.895538 48.874367 0.200000
v -17.301064 59.898232 0.200000
v -15.845467 61.214180 0.200000
v -18.500374 60.675125 0.200000
v -15.591980 40.896374 0.200000
v -13.146286 41.391548 0.200000
v -14.525475 42.565964 0.200000
v -14.964378 42.388535 0.200000
v -88.800186 14.460033 0.200000
v -89.949448 8.712769 0.200000
v -88.367599 12.805431 0.200000
v 18.315573 35.076874 0.200000
v 19.514875 34.299976 0.200000
v -117.411636 39.415733 0.200000
v -106.521240 33.454704 0.200000
v -105.190170 33.866142 0.200000
v -117.876221 40.810047 0.200000
v -23.467598 26.851871 0.200000
v -28.362167 29.685570 0.200000
v -29.709160 29.309925 0.200000
v -23.968628 25.986462 0.200000
v -120.039352 0.609024 0.200000
v -132.698578 5.791744 0.200000
v -134.038879 5.259899 0.200000
v -120.426071 -0.313206 0.200000
v -59.925552 36.933559 0.200000
v -63.984100 35.469093 0.200000
v -63.644417 34.520626 0.200000
v -59.679649 35.963909 0.200000
v -28.646454 53.975037 0.200000
v -18.211868 51.344620 0.200000
v -17.561722 52.863312 0.200000
v -28.414581 54.948433 0.200000
v -102.046204 7.424885 0.200000
v -106.958466 -5.007416 0.200000
v -106.406830 -6.332550 0.200000
v -101.482132 6.170773 0.200000
v -14.666077 21.756250 0.200000
v -15.167099 20.890837 0.200000
v -40.664787 56.542915 0.200000
v -40.437706 57.517250 0.200000
v -98.793152 32.537041 0.200000
v -99.912048 33.923470 0.200000
v -56.497543 57.588242 0.200000
v -49.905960 57.759911 0.200000
v -50.062309 60.193638 0.200000
v -56.688469 59.606888 0.200000
v 11.433334 65.732513 0.200000
v 13.310825 57.369595 0.200000
v 14.212631 57.885284 0.200000
v 12.175766 66.930374 0.205177
v 0.701706 63.553539 0.200000
v -79.520493 49.879211 0.200000
v -26.706261 32.638084 0.200000
v -28.335915 32.113403 0.200000
v -86.091705 19.184513 0.200000
v -85.343109 18.553974 0.200000
v -56.360931 56.591290 0.200000
v -49.846466 56.781487 0.200000
v -123.689865 27.132374 0.200000
v -124.498520 27.769890 0.200000
v -63.716965 55.414684 0.200000
v -63.944939 56.388515 0.200000
v 141.227509 -52.636986 0.200000
v 16.711815 42.220516 0.200000
v 16.747425 58.441956 0.200000
v 14.924698 66.099808 0.200000
v 14.537949 67.407280 0.200000
v -74.802765 51.875206 0.200000
v -71.328064 53.345295 0.200000
v -71.647423 54.296009 0.200000
v -48.065590 38.367538 0.200000
v -48.298607 37.372879 0.200000
v -55.866997 37.887848 0.200000
v -55.714897 36.897018 0.200000
v -72.112625 56.220707 0.200000
v -64.273018 57.977573 0.200000
v -109.046600 29.010128 0.200000
v -107.695816 29.551228 0.200000
v -90.271942 46.559521 0.200000
v -95.351791 39.863430 0.200000
v -103.598907 27.642170 0.200000
v -103.232559 26.710091 0.200000
v -129.483261 13.903694 0.200000
v -130.611816 13.837593 0.200000
v -80.967773 69.003708 0.002211
v 92.697784 -22.470455 0.200000
v -15.644196 60.234642 0.200000
v 92.156387 -23.311363 0.200000
v 137.777359 -50.495483 0.200000
v 79.276924 -101.357643 0.200000
v 76.452011 -105.655556 0.200000
v 76.121132 -107.970238 0.200000
v 80.486748 -101.103386 0.200000
v 70.379318 -114.894691 0.200000
v 71.276367 -115.302574 0.200000
v 35.705856 -93.608208 0.200000
v 41.544025 -84.582619 0.200000
v 40.704338 -84.039574 0.200000
v 34.866161 -93.065155 0.200000
v -92.646103 4.509598 0.200000
v -92.086670 3.227877 0.200000
v 57.319210 -87.583672 0.200000
v 54.277241 -92.322105 0.200000
v 55.684414 -91.980507 0.200000
v 58.712914 -87.263062 0.200000
v 64.049644 -97.966118 0.200000
v 63.729828 -96.627090 0.200000
v 94.260559 -20.031815 0.084002
v 95.342484 -18.343517 0.003696
v -83.963837 9.761684 0.200000
v -86.196732 6.305611 0.200000
v 53.438179 35.379913 0.201273
v 78.861267 47.011971 0.201315
v 79.539520 46.113960 0.201316
v 146.015411 -74.137184 0.200000
v -14.301521 61.530376 0.200092
v -14.110352 60.546078 0.200000
v 118.541718 -120.421089 0.200000
v 120.774612 -116.965019 0.200000
v 28.796986 -5.484585 0.200000
v 1.391182 12.035763 0.200000
v 0.861721 11.187426 0.200000
v 29.100376 -6.853222 0.200000
v 39.538223 12.847551 0.200000
v 40.941158 13.171543 0.200000
v 93.762680 26.566990 0.197677
v 94.932755 27.661705 0.151861
v 87.594460 36.975399 0.170305
v 85.785858 36.725372 0.149582
v 135.427551 -24.878651 0.201253
v 134.124908 -25.807579 0.201242
v 147.588440 -43.056450 0.201245
v 150.019501 -42.778236 0.201262
v 52.672577 85.187881 0.227335
v 35.320992 108.214424 0.227107
v 33.483799 107.091080 0.201276
v 51.136772 83.718796 0.201291
v 51.430710 35.830135 0.201251
v 50.422840 37.381416 0.201207
v 52.005989 35.395767 0.201259
v 69.581482 11.481827 0.227998
v 57.498245 19.009045 0.239689
v 56.930103 20.801174 0.224253
v 56.904163 21.515350 0.188657
v 82.219101 18.002129 0.202104
v 58.833241 24.309803 0.190143
v 72.873016 11.442875 0.221990
v 71.855270 10.999525 0.215545
v 97.774063 -145.519226 0.200000
v 93.226295 -148.221344 0.200000
v 144.967575 -57.444008 0.200000
v 146.560501 -60.668648 0.200000
v 117.027046 -122.765495 0.200000
v 110.433807 -132.211609 0.200000
v 147.575409 -64.144341 0.200000
v 147.200089 -71.044365 0.200000
v 144.193710 -78.893089 0.200000
v 80.574844 -149.213348 0.200000
v 101.496765 -142.370514 0.200000
v 125.242203 -35.025017 0.200000
v 125.374886 -35.084534 0.200000
v 87.303925 -149.776276 0.200000
v 106.144928 -137.705658 0.200000
v 138.837158 -49.564774 0.200000
v 122.565544 -38.011017 0.200000
v 125.109665 -35.081421 0.200000
v -58.173897 -11.039654 0.200000
v -55.941010 -7.583576 0.200000
v 164.627136 -55.428261 0.201242
v 165.339935 -53.846207 0.201253
v 175.905121 -57.683853 0.201242
v 176.295685 -56.048103 0.201253
v 96.120308 -158.145844 0.200961
v 102.701256 -154.789673 0.200896
v 134.187408 -115.319786 0.200803
v 145.624298 -96.243050 0.200799
v 119.381851 -138.869202 0.200818
v 123.680771 -132.844818 0.200810
v 70.516586 -155.793640 0.201309
v 78.596741 -159.542664 0.201199
v 108.740952 -150.393158 0.200853
v 114.540680 -144.482727 0.200832
v 153.237442 -82.165604 0.200799
v 156.862366 -73.080193 0.200801
v 48.908291 -143.083160 0.201454
v 52.327362 -144.977234 0.201340
v 129.641388 -122.902534 0.200806
v -5.059658 -108.551109 0.201326
v -5.585419 -109.401741 0.201613
v 16.427708 -123.007591 0.201549
v 87.965034 -159.941101 0.201067
v 148.281891 -91.810211 0.200796
v 61.085545 -149.979462 0.201352
v 58.630955 -148.393066 0.201342
v 127.453842 -126.551338 0.200807
v 157.586884 -63.430656 0.200827
v 59.438427 -131.540466 0.200000
v 59.637192 -132.733521 0.200000
v 24.892632 -110.325050 0.200000
v 23.495022 -110.645775 0.200000
v 44.611088 -79.841072 0.200000
v 44.336647 -78.341377 0.200000
v 88.009232 -134.126434 0.200000
v 80.034042 -130.450378 0.200000
v 78.554901 -130.911499 0.200000
v 87.765968 -135.109161 0.200000
v 85.078285 -121.375435 0.200000
v 77.510246 -117.083763 0.200000
v 76.690460 -117.687309 0.200000
v 83.771942 -121.669212 0.200000
v 92.564209 -109.390236 0.200000
v 115.719139 -123.257698 0.200000
v 93.084351 -108.536125 0.200000
v 95.778168 -134.795502 0.200000
v 95.819580 -135.802795 0.200000
v 109.829674 -131.239288 0.200000
v 103.466042 -133.491028 0.200000
v 103.718338 -134.462555 0.200000
v 79.051033 -129.963257 0.200000
v 85.178986 -104.817619 0.200000
v 85.681808 -103.952766 0.200000
v 29.343201 -130.990509 0.167595
v 69.744659 62.548851 0.227352
v 58.698353 77.197189 0.227341
v 57.078140 75.852516 0.201296
v 67.969704 61.432243 0.201305
v 80.790962 47.900520 0.227363
v 23.635397 -61.677040 0.200000
v 25.868288 -58.220970 0.200000
v 11.192673 -49.137230 0.200000
v 8.959778 -52.593300 0.200000
v 39.379784 -71.422325 0.200000
v 41.612679 -67.966255 0.200000
v 107.649582 -108.841026 0.200000
v 105.416695 -112.297112 0.200000
v 68.307137 -89.327454 0.200000
v 70.540031 -85.871384 0.200000
v 57.357067 -77.711540 0.200000
v 55.124176 -81.167610 0.200000
v 82.503326 -93.276283 0.200000
v 84.269165 -99.207451 0.200000
v -24.191734 -27.235382 0.200000
v -26.424622 -30.691467 0.200000
v -48.920319 -11.929165 0.200000
v -51.153214 -15.385239 0.200000
v 81.309502 -111.006874 0.200000
v 84.845284 -104.626793 0.200000
v 80.270432 -96.732361 0.200000
v 85.348106 -103.761940 0.200000
v 66.868835 -93.646393 0.200000
v 66.566330 -92.280830 0.200000
vn -0.307363 -0.197439 0.930884
vn 0.000000 0.000000 1.000000
vn -0.001795 0.012409 0.999921
vn 0.000000 0.000000 1.000000
vn 0.000000 0.000000 1.000000
vn 0.000000 0.000000 1.000000
vn 0.000000 0.000000 1.000000
vn 0.351182 -0.245017 0.903680
vn 0.231404 -0.162276 0.959228
vn 0.000526 -0.001160 0.999999
vn -0.001852 0.012697 0.999918
vn 0.979361 0.190246 0.068251
vn -0.423574 -0.138097 0.895273
vn -0.965254 -0.250937 -0.072902
vn 0.000000 0.000000 1.000000
vn 0.000236 -0.000285 1.000000
vn 0.000290 -0.000271 1.000000
vn 0.000000 0.000000 1.000000
vn 0.000000 0.000000 1.000000
vn 0.000349 -0.000235 1.000000
vn 0.000364 -0.000218 1.000000
vn 0.000000 0.000000 1.000000
vn 0.000000 0.000000 1.000000
vn 0.000000 0.000000 1.000000
vn 0.000419 -0.000033 1.000000
vn 0.000000 0.000000 1.000000
vn 0.000000 0.000000 1.000000
vn -0.000005 -0.000004 1.000000
vn 0.000000 0.000000 1.000000
vn 0.000000 0.000000 1.000000
vn 0.000000 0.000000 1.000000
vn 0.000373 -0.000213 1.000000
vn 0.000390 -0.000185 1.000000
vn 0.000000 0.000000 1.000000
vn 0.000000 0.000000 1.000000
vn 0.000000 0.000000 1.000000
vn 0.000411 -0.000118 1.000000
vn 0.013754 -0.008101 0.999873
vn -0.000257 -0.000138 1.000000
vn -0.975662 -0.164471 -0.145029
vn -0.000005 -0.000004 1.000000
vn -0.000009 0.000019 1.000000
vn -0.000007 0.000018 1.000000
vn 0.000000 0.000000 1.000000
vn 0.000000 0.000000 1.000000
vn -0.000364 0.001350 0.999999
vn 0.000055 0.000080 1.000000
vn 0.000031 0.000055 1.000000
vn 0.000035 0.000058 1.000000
vn 0.000000 0.000000 1.000000
vn 0.000023 0.000036 1.000000
vn -0.000002 -0.000037 1.000000
vn 0.000000 0.000000 1.000000
vn 0.000015 -0.000147 1.000000
vn 0.000000 0.000000 1.000000
vn 0.000000 0.000000 1.000000
vn 0.000082 -0.000238 1.000000
vn 0.000166 -0.000279 1.000000
vn -0.000008 0.000019 1.000000
vn -0.000011 0.000021 1.000000
vn 0.000000 0.000000 1.000000
vn 0.000320 -0.000258 1.000000
vn 0.000000 0.000000 1.000000
vn -0.003751 0.001524 0.999992
vn 0.001839 0.002192 0.999996
vn 0.002708 0.001213 0.999996
vn -0.001052 0.005138 0.999986
vn -0.007270 0.001603 0.999972
vn -0.010037 0.002147 0.999947
vn -0.000314 0.002614 0.999997
vn 0.005190 0.007394 0.999959
vn -0.000249 0.029374 0.999568
vn 0.001838 0.010953 0.999938
vn 0.017214 0.021100 0.999629
vn -0.000786 0.002987 0.999995
vn 0.000365 -0.000218 1.000000
vn 0.000366 -0.000219 1.000000
vn 0.751038 -0.483566 0.449561
vn 0.423298 -0.095195 0.900976
vn 0.000367 -0.000220 1.000000
vn 0.000000 0.000000 1.000000
vn 0.261678 -0.340414 0.903130
vn -0.005196 0.025155 0.999670
vn 0.714842 -0.691815 0.101943
vn 0.668900 -0.503087 0.547245
vn 0.777111 -0.610873 0.151436
vn 0.000095 0.063566 0.997978
vn 0.020648 -0.012158 0.999713
vn 0.000818 -0.000195 1.000000
vn 0.001820 0.001010 0.999998
vn 0.000095 0.063567 0.997978
vn -0.074534 0.338744 0.937922
vn -0.019977 0.101394 0.994646
vn 0.751279 -0.485376 0.447202
vn 0.044055 0.024398 0.998731
vn 0.041479 0.059591 0.997361
vn 0.004590 0.062291 0.998047
vn 0.023495 0.059811 0.997933
vn 0.037116 0.064040 0.997257
vn 0.469354 -0.129194 0.873508
vn 0.656777 0.200026 0.727072
vn 0.270747 -0.298078 0.915339
vn -0.001118 0.003097 0.999995
vn -0.001573 0.006197 0.999980
vn 0.000000 0.000000 1.000000
vn 0.000000 0.000000 1.000000
vn 0.000000 0.000000 1.000000
vn 0.000000 0.000000 1.000000
vn 0.000000 0.000000 1.000000
vn 0.000000 0.000000 1.000000
vn 0.000000 0.000000 1.000000
vn 0.000000 0.000000 1.000000
vn 0.000000 0.000000 1.000000
vn 0.000000 0.000000 1.000000
vn 0.000000 0.000000 1.000000
vn 0.000000 0.000000 1.000000
vn 0.000000 0.000000 1.000000
vn 0.000000 0.000000 1.000000
vn 0.000000 0.000000 1.000000
vn 0.000000 0.000000 1.000000
vn 0.000000 0.000000 1.000000
vn 0.000000 0.000000 1.000000
vn 0.000000 0.000000 1.000000
vn 0.000000 0.000000 1.000000
vn 0.000000 0.000000 1.000000
vn 0.000000 0.000000 1.000000
vn 0.000000 0.000000 1.000000
vn 0.000000 0.000000 1.000000
vn 0.000000 0.000000 1.000000
vn 0.000000 0.000000 1.000000
vn 0.000000 0.000000 1.000000
vn 0.000000 0.000000 1.000000
vn 0.000000 0.000000 1.000000
vn 0.000000 0.000000 1.000000
vn 0.000000 0.000000 1.000000
vn 0.000000 0.000000 1.000000
vn 0.000000 0.000000 1.000000
vn 0.000000 0.000000 1.000000
vn 0.000000 0.000000 1.000000
vn 0.000000 0.000000 1.000000
vn 0.000000 0.000000 1.000000
vn 0.000000 0.000000 1.000000
vn 0.000000 0.000000 1.000000
vn 0.000000 0.000000 1.000000
vn 0.000000 0.000000 1.000000
vn 0.000000 0.000000 1.000000
vn 0.000000 0.000000 1.000000
vn 0.000000 0.000000 1.000000
vn 0.000000 0.000000 1.000000
vn 0.000000 0.000000 1.000000
vn 0.000000 0.000000 1.000000
vn 0.000000 0.000000 1.000000
vn 0.012469 0.035405 0.999295
vn 0.020316 0.033809 0.999222
vn 0.000000 0.000000 1.000000
vn 0.000000 0.000000 1.000000
vn 0.000000 0.000000 1.000000
vn 0.000000 0.000000 1.000000
vn 0.000000 0.000000 1.000000
vn 0.000000 0.000000 1.000000
vn 0.000000 0.000000 1.000000
vn 0.000000 0.000000 1.000000
vn 0.000000 0.000000 1.000000
vn 0.000000 0.000000 1.000000
vn 0.000000 0.000000 1.000000
vn 0.000000 0.000000 1.000000
vn 0.000000 0.000000 1.000000
vn 0.000000 0.000000 1.000000
vn 0.000000 0.000000 1.000000
vn 0.000000 0.000000 1.000000
vn 0.000000 0.000000 1.000000
vn 0.000000 0.000000 1.000000
vn 0.000000 0.000000 1.000000
vn 0.000000 0.000000 1.000000
vn 0.000000 0.000000 1.000000
vn 0.000000 0.000000 1.000000
vn 0.000000 0.000000 1.000000
vn 0.000000 0.000000 1.000000
vn 0.000000 0.000000 1.000000
vn 0.000000 0.000000 1.000000
vn 0.000000 0.000000 1.000000
vn 0.000000 0.000000 1.000000
vn 0.000000 0.000000 1.000000
vn 0.000000 0.000000 1.000000
vn 0.000000 0.000000 1.000000
vn 0.000000 0.000000 1.000000
vn 0.000000 0.000000 1.000000
vn 0.000000 0.000000 1.000000
vn 0.000000 0.000000 1.000000
vn 0.000000 0.000000 1.000000
vn 0.000000 0.000000 1.000000
vn 0.000000 0.000000 1.000000
vn 0.000000 0.000000 1.000000
vn 0.000000 0.000000 1.000000
vn 0.000000 0.000000 1.000000
vn 0.000000 0.000000 1.000000
vn 0.000000 0.000000 1.000000
vn 0.000000 0.000000 1.000000
vn 0.000000 0.000000 1.000000
vn 0.000000 0.000000 1.000000
vn 0.000000 0.000000 1.000000
vn -0.000018 -0.000004 1.000000
vn 0.000000 0.000000 1.000000
vn 0.000000 0.000000 1.000000
vn 0.000000 0.000000 1.000000
vn 0.000000 0.000000 1.000000
vn 0.000000 0.000000 1.000000
vn 0.000000 0.000000 1.000000
vn 0.000000 0.000000 1.000000
vn 0.000000 0.000000 1.000000
vn 0.000000 0.000000 1.000000
vn 0.000000 0.000000 1.000000
vn 0.000000 0.000000 1.000000
vn 0.000000 0.000000 1.000000
vn 0.000000 0.000000 1.000000
vn 0.000000 0.000000 1.000000
vn 0.000000 0.000000 1.000000
vn 0.000000 0.000000 1.000000
vn 0.000000 0.000000 1.000000
vn 0.000000 0.000000 1.000000
vn 0.000000 0.000000 1.000000
vn 0.000000 0.000000 1.000000
vn 0.000000 0.000000 1.000000
vn 0.000000 0.000000 1.000000
vn 0.000000 0.000000 1.000000
vn 0.000000 0.000000 1.000000
vn 0.000000 0.000000 1.000000
vn 0.000000 0.000000 1.000000
vn 0.000000 0.000000 1.000000
vn 0.000000 0.000000 1.000000
vn 0.000000 0.000000 1.000000
vn 0.000000 0.000000 1.000000
vn 0.000000 0.000000 1.000000
vn 0.000000 0.000000 1.000000
vn 0.000000 0.000000 1.000000
vn 0.000000 0.000000 1.000000
vn 0.000000 0.000000 1.000000
vn 0.000000 0.000000 1.000000
vn 0.000000 0.000000 1.000000
vn 0.000000 0.000000 1.000000
vn 0.000000 0.000000 1.000000
vn 0.000000 0.000000 1.000000
vn 0.000000 0.000000 1.000000
vn 0.000000 0.000000 1.000000
vn 0.000000 0.000000 1.000000
vn 0.000000 0.000000 1.000000
vn -0.001144 -0.002172 0.999997
vn 0.000000 0.000000 1.000000
vn -0.000864 -0.000423 1.000000
vn 0.000023 -0.000883 1.000000
vn 0.000127 -0.001327 0.999999
vn 0.000000 0.000000 1.000000
vn 0.000000 0.000000 1.000000
vn 0.000000 0.000000 1.000000
vn 0.000000 0.000000 1.000000
vn 0.000000 0.000000 1.000000
vn 0.000000 0.000000 1.000000
vn 0.000000 0.000000 1.000000
vn -0.252516 -0.223138 0.941512
vn -0.437776 -0.555295 0.707107
vn 0.000000 0.000000 1.000000
vn 0.000000 0.000000 1.000000
vn 0.000000 0.000000 1.000000
vn 0.000000 0.000000 1.000000
vn 0.001074 -0.000031 0.999999
vn 0.002049 0.000547 0.999998
vn 0.002068 0.000612 0.999998
vn 0.000000 0.000000 1.000000
vn 0.000000 0.000000 1.000000
vn 0.000000 0.000000 1.000000
vn 0.000000 0.000000 1.000000
vn 0.000000 0.000000 1.000000
vn 0.000000 0.000000 1.000000
vn 0.000000 0.000000 1.000000
vn 0.000000 0.000000 1.000000
vn 0.000000 0.000000 1.000000
vn 0.000000 0.000000 1.000000
vn 0.000000 0.000000 1.000000
vn 0.000000 0.000000 1.000000
vn 0.000000 0.000000 1.000000
vn 0.000000 0.000000 1.000000
vn 0.000000 0.000000 1.000000
vn -0.130110 0.360422 0.923671
vn -0.026149 0.446448 0.894427
vn -0.554409 -0.132556 0.821620
vn 0.026239 0.026021 0.999317
vn -0.000018 -0.000005 1.000000
vn 0.000000 0.000000 1.000000
vn 0.000000 0.000000 1.000000
vn 0.000000 0.000000 1.000000
vn 0.000000 0.000000 1.000000
vn 0.000000 0.000000 1.000000
vn 0.000000 0.000000 1.000000
vn 0.000000 0.000000 1.000000
vn 0.000000 0.000000 1.000000
vn 0.000000 0.000000 1.000000
vn 0.000000 0.000000 1.000000
vn 0.000000 0.000000 1.000000
vn 0.000000 0.000000 1.000000
vn 0.000000 0.000000 1.000000
vn 0.000000 0.000000 1.000000
vn 0.000000 0.000000 1.000000
vn 0.000000 0.000000 1.000000
vn 0.000000 0.000000 1.000000
vn 0.000000 0.000000 1.000000
vn 0.000000 0.000000 1.000000
vn 0.000000 0.000000 1.000000
vn 0.044478 0.019008 0.998830
vn 0.377978 -0.199232 0.904124
vn 0.000000 0.000000 1.000000
vn 0.000000 0.000000 1.000000
vn 0.000251 -0.000553 1.000000
vn -0.003004 -0.002757 0.999992
vn 0.351182 -0.245017 0.903680
vn 0.000000 0.000000 1.000000
vn 0.182114 0.075965 0.980339
vn -0.000007 -0.000065 1.000000
vn 0.094964 0.005889 0.995463
vn 0.016784 -0.101789 0.994664
vn 0.000000 0.000000 1.000000
vn 0.000000 0.000000 1.000000
vn 0.000000 0.000000 1.000000
vn 0.000000 0.000000 1.000000
vn 0.000000 0.000000 1.000000
vn 0.000000 0.000000 1.000000
vn 0.009208 0.011386 0.999893
vn 0.020135 0.020314 0.999591
vn -0.002135 0.003215 0.999993
vn -0.005641 0.000448 0.999984
vn -0.000006 -0.000004 1.000000
vn -0.000005 -0.000004 1.000000
vn -0.000006 -0.000006 1.000000
vn -0.000005 -0.000006 1.000000
vn -0.009775 -0.007370 0.999925
vn -0.009629 -0.007246 0.999927
vn -0.009737 -0.007340 0.999926
vn -0.009859 -0.007442 0.999924
vn -0.000007 0.000019 1.000000
vn -0.000011 0.000021 1.000000
vn -0.000005 0.000018 1.000000
vn 0.004309 0.002067 0.999989
vn -0.000056 0.003393 0.999994
vn -0.004249 0.021350 0.999763
vn -0.000261 0.027029 0.999635
vn -0.000701 0.002302 0.999997
vn -0.000881 0.001440 0.999999
vn -0.001967 0.001742 0.999997
vn -0.001716 0.001701 0.999997
vn 0.000000 0.000000 1.000000
vn 0.000000 0.000000 1.000000
vn 0.000000 0.000000 1.000000
vn 0.000000 0.000000 1.000000
vn 0.000000 0.000000 1.000000
vn 0.000000 0.000000 1.000000
vn 0.000000 0.000000 1.000000
vn 0.000000 0.000000 1.000000
vn 0.000000 0.000000 1.000000
vn 0.000000 0.000000 1.000000
vn 0.000000 0.000000 1.000000
vn 0.000000 0.000000 1.000000
vn 0.000000 0.000000 1.000000
vn 0.000000 0.000000 1.000000
vn 0.000000 0.000000 1.000000
vn 0.000000 0.000000 1.000000
vn 0.000000 0.000000 1.000000
vn 0.000000 0.000000 1.000000
vn 0.000000 0.000000 1.000000
vn 0.000000 0.000000 1.000000
vn -0.000004 -0.000007 1.000000
vn -0.000002 -0.000006 1.000000
vn -0.000001 -0.000006 1.000000
vn -0.000001 -0.000006 1.000000
vn 0.000123 -0.000277 1.000000
vn 0.000199 -0.000296 1.000000
vn 0.000367 -0.000220 1.000000
vn 0.000368 -0.000220 1.000000
vn 0.000333 -0.000252 1.000000
vn 0.000358 -0.000227 1.000000
vn 0.000005 -0.000006 1.000000
vn -0.000004 -0.000108 1.000000
vn 0.000265 -0.000285 1.000000
vn 0.000304 -0.000271 1.000000
vn 0.000396 -0.000173 1.000000
vn 0.000413 -0.000075 1.000000
vn -0.000348 0.000359 1.000000
vn 0.000038 0.000049 1.000000
vn 0.000365 -0.000219 1.000000
vn 0.000151 0.000244 1.000000
vn 0.000140 0.000224 1.000000
vn 0.001861 0.000075 0.999998
vn 0.000040 -0.000216 1.000000
vn 0.000379 -0.000205 1.000000
vn 0.000030 0.000047 1.000000
vn 0.000033 0.000058 1.000000
vn 0.000365 -0.000218 1.000000
vn 0.000409 -0.000033 1.000000
vn 0.000000 0.000000 1.000000
vn 0.000000 0.000000 1.000000
vn 0.000000 0.000000 1.000000
vn 0.000000 0.000000 1.000000
vn 0.000000 0.000000 1.000000
vn 0.000000 0.000000 1.000000
vn 0.000000 0.000000 1.000000
vn 0.000000 0.000000 1.000000
vn 0.000000 0.000000 1.000000
vn 0.000000 0.000000 1.000000
vn 0.000000 0.000000 1.000000
vn 0.010268 -0.006169 0.999928
vn 0.000000 0.000000 1.000000
vn 0.000000 0.000000 1.000000
vn 0.000000 0.000000 1.000000
vn 0.000000 0.000000 1.000000
vn 0.000000 0.000000 1.000000
vn 0.000000 0.000000 1.000000
vn 0.000000 0.000000 1.000000
vn 0.000000 0.000000 1.000000
vn 0.000000 0.000000 1.000000
vn 0.000000 0.000000 1.000000
vn 0.000000 0.000000 1.000000
vn 0.000000 0.000000 1.000000
vn 0.000000 0.000000 1.000000
vn 0.000702 0.001651 0.999998
vn -0.009929 -0.007491 0.999923
vn -0.009873 -0.007448 0.999924
vn -0.009905 -0.007477 0.999923
vn -0.009972 -0.007527 0.999922
vn -0.009984 -0.007534 0.999922
vn 0.000000 0.000000 1.000000
vn 0.000000 0.000000 1.000000
vn 0.000000 0.000000 1.000000
vn 0.000000 0.000000 1.000000
vn 0.000000 0.000000 1.000000
vn 0.000000 0.000000 1.000000
vn 0.000000 0.000000 1.000000
vn 0.000000 0.000000 1.000000
vn 0.000000 0.000000 1.000000
vn 0.000000 0.000000 1.000000
vn 0.000000 0.000000 1.000000
vn 0.000000 0.000000 1.000000
vn 0.000000 0.000000 1.000000
vn 0.000000 0.000000 1.000000
vn 0.000000 0.000000 1.000000
vn 0.000000 0.000000 1.000000
vn 0.000000 0.000000 1.000000
vn 0.000000 0.000000 1.000000
vn 0.006871 -0.004048 0.999968
vn 0.002615 -0.001449 0.999996
vn 0.000000 0.000000 1.000000
vn 0.000000 0.000000 1.000000
vn 0.000000 0.000000 1.000000
vn 0.000000 0.000000 1.000000
f 103//103 104//104 105//105
f 103//103 105//105 106//106
f 105//105 104//104 107//107
f 105//105 107//107 108//108
f 109//109 110//110 111//111
f 109//109 111//111 112//112
f 113//113 114//114 115//115
f 113//113 115//115 116//116
f 117//117 118//118 119//119
f 120//120 121//121 122//122
f 120//120 122//122 123//123
f 124//124 125//125 126//126
f 127//127 124//124 126//126
f 127//127 126//126 128//128
f 129//129 130//130 131//131
f 129//129 131//131 132//132
f 133//133 134//134 135//135
f 133//133 135//135 136//136
f 137//137 127//127 128//128
f 137//137 128//128 138//138
f 139//139 129//129 132//132
f 139//139 132//132 140//140
f 141//141 142//142 143//143
f 141//141 143//143 144//144
f 145//145 146//146 147//147
f 145//145 147//147 148//148
f 149//149 137//137 138//138
f 149//149 138//138 150//150
f 151//151 152//152 153//153
f 151//151 153//153 154//154
f 155//155 156//156 157//157
f 155//155 157//157 158//158
f 159//159 160//160 161//161
f 159//159 161//161 162//162
f 163//163 159//159 162//162
f 163//163 162//162 164//164
f 163//163 164//164 165//165
f 142//142 166//166 167//167
f 142//142 167//167 143//143
f 168//168 163//163 169//169
f 168//168 169//169 170//170
f 160//160 171//171 172//172
f 160//160 172//172 161//161
f 173//173 174//174 175//175
f 173//173 175//175 176//176
f 174//174 177//177 178//178
f 174//174 178//178 175//175
f 171//171 155//155 158//158
f 171//171 158//158 172//172
f 179//179 180//180 181//181
f 152//152 179//179 181//181
f 152//152 181//181 153//153
f 177//177 182//182 183//183
f 177//177 183//183 178//178
f 121//121 149//149 150//150
f 121//121 150//150 122//122
f 146//146 120//120 123//123
f 146//146 123//123 147//147
f 184//184 133//133 136//136
f 184//184 136//136 185//185
f 186//186 187//187 188//188
f 186//186 188//188 189//189
f 190//190 191//191 192//192
f 190//190 192//192 193//193
f 194//194 195//195 196//196
f 194//194 196//196 197//197
f 198//198 190//190 193//193
f 198//198 193//193 199//199
f 187//187 200//200 108//108
f 187//187 108//108 188//188
f 201//201 202//202 203//203
f 204//204 205//205 206//206
f 204//204 206//206 207//207
f 208//208 209//209 210//210
f 211//211 198//198 199//199
f 211//211 199//199 212//212
f 213//213 214//214 215//215
f 213//213 215//215 216//216
f 217//217 218//218 219//219
f 217//217 219//219 220//220
f 221//221 222//222 223//223
f 221//221 223//223 224//224
f 225//225 226//226 227//227
f 225//225 227//227 228//228
f 229//229 230//230 231//231
f 229//229 231//231 232//232
f 233//233 234//234 235//235
f 233//233 235//235 236//236
f 237//237 217//217 220//220
f 237//237 220//220 238//238
f 239//239 229//229 232//232
f 239//239 232//232 240//240
f 241//241 186//186 189//189
f 241//241 189//189 242//242
f 204//204 207//207 231//231
f 204//204 231//231 230//230
f 234//234 221//221 224//224
f 234//234 224//224 235//235
f 114//114 194//194 197//197
f 114//114 197//197 115//115
f 243//243 244//244 245//245
f 243//243 245//245 246//246
f 247//247 248//248 249//249
f 247//247 249//249 250//250
f 251//251 247//247 250//250
f 251//251 250//250 39//39
f 200//200 252//252 105//105
f 200//200 105//105 108//108
f 253//253 109//109 112//112
f 253//253 112//112 254//254
f 255//255 208//208 210//210
f 255//255 210//210 256//256
f 257//257 258//258 244//244
f 257//257 244//244 243//243
f 205//205 201//201 203//203
f 205//205 203//203 206//206
f 259//259 213//213 216//216
f 259//259 216//216 260//260
f 261//261 257//257 243//243
f 261//261 243//243 262//262
f 185//185 263//263 184//184
f 249//249 248//248 264//264
f 249//249 264//264 4//4
f 4//4 264//264 7//7
f 250//250 249//249 265//265
f 250//250 265//265 266//266
f 250//250 266//266 267//267
f 268//268 269//269 270//270
f 268//268 270//270 106//106
f 268//268 106//106 105//105
f 268//268 105//105 252//252
f 226//226 113//113 116//116
f 226//226 116//116 227//227
f 239//239 240//240 244//244
f 239//239 244//244 258//258
f 111//111 110//110 271//271
f 111//111 271//271 272//272
f 271//271 273//273 274//274
f 271//271 274//274 272//272
f 106//106 270//270 275//275
f 106//106 275//275 103//103
f 262//262 243//243 246//246
f 262//262 246//246 276//276
f 214//214 277//277 278//278
f 214//214 278//278 215//215
f 219//219 218//218 253//253
f 219//219 253//253 254//254
f 188//188 108//108 107//107
f 188//188 107//107 279//279
f 189//189 188//188 279//279
f 189//189 279//279 280//280
f 281//281 278//278 277//277
f 281//281 277//277 282//282
f 195//195 255//255 256//256
f 195//195 256//256 196//196
f 282//282 241//241 242//242
f 282//282 242//242 281//281
f 242//242 189//189 280//280
f 270//270 262//262 276//276
f 270//270 276//276 275//275
f 269//269 261//261 262//262
f 269//269 262//262 270//270
f 273//273 225//225 228//228
f 273//273 228//228 274//274
f 92//92 1//1 2//2
f 92//92 2//2 15//15
f 222//222 283//283 284//284
f 222//222 284//284 223//223
f 13//13 3//3 11//11
f 13//13 11//11 285//285
f 283//283 259//259 1//1
f 283//283 1//1 92//92
f 153//153 98//98 99//99
f 153//153 99//99 154//154
f 154//154 99//99 96//96
f 154//154 96//96 286//286
f 202//202 201//201 287//287
f 202//202 287//287 83//83
f 212//212 5//5 6//6
f 212//212 6//6 7//7
f 125//125 124//124 117//117
f 125//125 117//117 119//119
f 118//118 117//117 288//288
f 118//118 288//288 286//286
f 180//180 179//179 184//184
f 180//180 184//184 289//289
f 289//289 184//184 263//263
f 290//290 291//291 292//292
f 290//290 292//292 293//293
f 291//291 294//294 295//295
f 291//291 295//295 292//292
f 296//296 297//297 298//298
f 296//296 298//298 299//299
f 130//130 145//145 148//148
f 130//130 148//148 131//131
f 182//182 139//139 140//140
f 182//182 140//140 183//183
f 300//300 233//233 236//236
f 300//300 236//236 301//301
f 302//302 303//303 304//304
f 302//302 304//304 305//305
f 303//303 306//306 307//307
f 303//303 307//307 304//304
f 308//308 95//95 309//309
f 156//156 173//173 176//176
f 156//156 176//176 157//157
f 288//288 151//151 154//154
f 288//288 154//154 286//286
f 209//209 208//208 300//300
f 209//209 300//300 301//301
f 310//310 210//210 209//209
f 310//310 209//209 311//311
f 7//7 264//264 211//211
f 7//7 211//211 212//212
f 312//312 10//10 9//9
f 312//312 9//9 313//313
f 314//314 9//9 8//8
f 314//314 8//8 313//313
f 167//167 166//166 168//168
f 167//167 168//168 170//170
f 135//135 134//134 141//141
f 135//135 141//141 144//144
f 135//135 167//167 170//170
f 135//135 170//170 136//136
f 136//136 170//170 169//169
f 136//136 169//169 315//315
f 95//95 308//308 286//286
f 285//285 11//11 104//104
f 285//285 104//104 103//103
f 285//285 40//40 14//14
f 285//285 14//14 13//13
f 86//86 309//309 85//85
f 86//86 85//85 84//84
f 309//309 95//95 85//85
f 260//260 1//1 259//259
f 284//284 283//283 92//92
f 316//316 317//317 251//251
f 316//316 251//251 39//39
f 83//83 287//287 317//317
f 83//83 317//317 316//316
f 93//93 83//83 316//316
f 93//93 316//316 101//101
f 12//12 101//101 316//316
f 318//318 100//100 102//102
f 318//318 102//102 319//319
f 82//82 319//319 102//102
f 100//100 79//79 78//78
f 102//102 94//94 82//82
f 79//79 100//100 318//318
f 191//191 24//24 192//192
f 320//320 321//321 322//322
f 320//320 322//322 323//323
f 324//324 320//320 323//323
f 324//324 323//323 325//325
f 153//153 91//91 97//97
f 98//98 153//153 97//97
f 286//286 96//96 95//95
f 326//326 327//327 328//328
f 326//326 328//328 329//329
f 330//330 331//331 332//332
f 330//330 332//332 333//333
f 334//334 335//335 336//336
f 334//334 336//336 337//337
f 60//60 59//59 338//338
f 60//60 338//338 339//339
f 43//43 42//42 312//312
f 43//43 312//312 340//340
f 66//66 341//341 342//342
f 66//66 342//342 67//67
f 72//72 343//343 344//344
f 72//72 344//344 73//73
f 71//71 326//326 345//345
f 71//71 345//345 70//70
f 74//74 327//327 326//326
f 74//74 326//326 71//71
f 73//73 344//344 346//346
f 73//73 346//346 75//75
f 68//68 329//329 328//328
f 68//68 328//328 69//69
f 64//64 347//347 348//348
f 64//64 348//348 65//65
f 67//67 342//342 343//343
f 67//67 343//343 72//72
f 65//65 348//348 341//341
f 65//65 341//341 66//66
f 75//75 346//346 329//329
f 75//75 329//329 68//68
f 70//70 345//345 347//347
f 70//70 347//347 64//64
f 56//56 55//55 349//349
f 56//56 349//349 350//350
f 27//27 26//26 351//351
f 27//27 351//351 352//352
f 61//61 63//63 353//353
f 61//61 353//353 354//354
f 34//34 36//36 355//355
f 34//34 355//355 356//356
f 35//35 169//169 357//357
f 55//55 19//19 359//359
f 55//55 359//359 349//349
f 36//36 27//27 352//352
f 36//36 352//352 355//355
f 45//45 44//44 360//360
f 45//45 360//360 361//361
f 50//50 53//53 362//362
f 50//50 362//362 358//358
f 19//19 18//18 363//363
f 19//19 363//363 359//359
f 22//22 35//35 357//357
f 22//22 357//357 165//165
f 53//53 56//56 350//350
f 53//53 350//350 362//362
f 31//31 45//45 361//361
f 31//31 361//361 364//364
f 23//23 22//22 165//165
f 23//23 165//165 164//164
f 18//18 61//61 354//354
f 18//18 354//354 363//363
f 26//26 185//185 351//351
f 30//30 29//29 365//365
f 30//30 365//365 366//366
f 44//44 30//30 366//366
f 44//44 366//366 360//360
f 63//63 79//79 318//318
f 63//63 318//318 353//353
f 367//367 368//368 310//310
f 367//367 310//310 311//311
f 81//81 23//23 164//164
f 81//81 164//164 162//162
f 24//24 191//191 324//324
f 24//24 324//324 325//325
f 263//263 31//31 364//364
f 185//185 26//26 31//31
f 185//185 31//31 263//263
f 169//169 35//35 34//34
f 169//169 34//34 356//356
f 169//169 356//356 315//315
f 28//28 41//41 331//331
f 28//28 331//331 330//330
f 333//333 332//332 369//369
f 333//333 369//369 370//370
f 370//370 369//369 371//371
f 370//370 371//371 372//372
f 58//58 57//57 373//373
f 58//58 373//373 374//374
f 80//80 77//77 375//375
f 80//80 375//375 376//376
f 20//20 62//62 377//377
f 20//20 377//377 378//378
f 52//52 51//51 379//379
f 52//52 379//379 380//380
f 17//17 16//16 381//381
f 17//17 381//381 382//382
f 37//37 33//33 383//383
f 37//37 383//383 384//384
f 47//47 46//46 385//385
f 47//47 385//385 386//386
f 16//16 58//58 374//374
f 16//16 374//374 381//381
f 77//77 76//76 387//387
f 77//77 387//387 375//375
f 89//89 388//388 389//389
f 89//89 389//389 390//390
f 57//57 54//54 391//391
f 57//57 391//391 373//373
f 54//54 52//52 380//380
f 54//54 380//380 391//391
f 32//32 80//80 376//376
f 32//32 376//376 392//392
f 51//51 49//49 393//393
f 51//51 393//393 379//379
f 48//48 47//47 386//386
f 48//48 386//386 394//394
f 76//76 21//21 395//395
f 76//76 395//395 387//387
f 21//21 20//20 378//378
f 21//21 378//378 395//395
f 62//62 17//17 382//382
f 62//62 382//382 377//377
f 33//33 32//32 392//392
f 33//33 392//392 383//383
f 49//49 48//48 394//394
f 49//49 394//394 393//393
f 25//25 37//37 384//384
f 25//25 384//384 396//396
f 297//297 401//401 402//402
f 297//297 402//402 298//298
f 294//294 397//397 398//398
f 294//294 398//398 295//295
f 399//399 296//296 299//299
f 399//399 299//299 400//400
f 403//403 404//404 405//405
f 403//403 405//405 406//406
f 407//407 408//408 409//409
f 407//407 409//409 410//410
f 411//411 412//412 353//353
f 411//411 353//353 413//413
f 414//414 403//403 406//406
f 414//414 406//406 415//415
f 412//412 416//416 354//354
f 412//412 354//354 353//353
f 417//417 414//414 415//415
f 417//417 415//415 418//418
f 416//416 417//417 418//418
f 416//416 418//418 354//354
f 404//404 419//419 405//405
f 420//420 411//411 413//413
f 420//420 413//413 421//421
f 419//419 404//404 407//407
f 419//419 407//407 410//410
f 90//90 89//89 390//390
f 90//90 390//390 422//422
f 46//46 90//90 422//422
f 46//46 422//422 385//385
f 43//43 340//340 338//338
f 43//43 338//338 59//59
f 423//423 424//424 425//425
f 423//423 425//425 426//426
f 424//424 334//334 337//337
f 424//424 337//337 425//425
f 427//427 423//423 426//426
f 427//427 426//426 313//313
f 428//428 429//429 430//430
f 428//428 430//430 431//431
f 432//432 433//433 429//429
f 432//432 429//429 428//428
f 318//318 319//319 434//434
f 318//318 434//434 435//435
f 436//436 437//437 438//438
f 436//436 438//438 439//439
f 435//435 434//434 440//440
f 435//435 440//440 441//441
f 439//439 438//438 433//433
f 439//439 433//433 432//432
f 431//431 430//430 442//442
f 431//431 442//442 443//443
f 443//443 442//442 444//444
f 443//443 444//444 445//445
f 321//321 237//237 238//238
f 321//321 238//238 322//322
f 445//445 444//444 368//368
f 445//445 368//368 367//367
f 446//446 420//420 447//447
f 446//446 447//447 38//38
f 408//408 446//446 38//38
f 408//408 38//38 88//88
f 441//441 440//440 448//448
f 447//447 420//420 421//421
f 447//447 421//421 449//449
f 450//450 290//290 293//293
f 450//450 293//293 451//451
f 401//401 302//302 305//305
f 401//401 305//305 402//402
f 306//306 450//450 451//451
f 306//306 451//451 307//307
f 448//448 440//440 437//437
f 448//448 437//437 436//436
f 97//97 91//91 87//87
f 319//319 82//82 81//81
f 319//319 81//81 162//162
