# Generated by scripts/generate_campus_collision.py
# Source materials: Road
o road_surface_collision
v -124.611313 27.761665 0.000000
v -94.178268 66.985046 0.000000
v -109.031067 63.600601 0.000000
v -86.583038 68.357712 0.000000
v -157.529892 11.127014 0.000000
v -155.384277 10.503281 0.000000
v -158.265457 16.959118 0.000000
v -162.759399 19.607513 0.000000
v -123.415985 55.524639 0.000000
v -119.354401 61.826160 0.000000
v -136.239716 18.598438 0.000000
v -132.322250 26.667561 0.000000
v -126.854996 61.160229 0.000000
v -133.866135 59.476444 0.000000
v -144.010559 50.780342 0.000000
v -139.902084 48.026993 0.000000
v -141.310242 36.732307 0.000000
v -140.615585 37.911045 0.000000
v -136.475586 58.074429 0.000000
v -151.457016 19.514034 0.000000
v -147.559601 26.127617 0.000000
v -138.253937 18.636997 0.000000
v -138.201859 17.989624 0.000000
v -131.565292 42.880978 0.000000
v -154.195892 14.866394 0.000000
v -119.843857 62.439114 0.000000
v -138.912109 56.297497 0.000000
v -136.024933 45.701031 0.000000
v -132.344543 27.587433 0.000000
v -132.977905 27.691231 0.000000
v -141.562546 53.640148 0.000000
v -163.109055 17.903568 0.000000
v -153.137451 10.183235 0.000000
v -162.750122 16.199642 0.000000
v -161.025284 13.434849 0.000000
v -137.334610 17.952553 0.000000
v -150.247437 12.095657 0.000000
v -159.429428 12.129093 0.000000
v -148.526047 33.706657 0.000000
v -133.557404 27.102043 0.000000
v -146.939850 27.179329 0.000000
v -94.835281 73.603500 0.200000
v -86.502930 74.979332 0.200000
v -80.653854 75.787323 0.200000
v -109.995789 70.625877 0.200000
v 25.384098 29.735645 0.000000
v 23.185478 33.240677 0.000000
v 20.334576 42.963856 0.000000
v 17.653248 42.379982 0.200000
v 27.685093 36.220673 0.200000
v 29.558155 33.159237 0.000000
v 31.887653 31.038525 0.000000
v 23.334526 57.729836 0.000000
v 25.741083 44.439362 0.000000
v 79.607437 46.034691 0.000000
v 80.892433 47.873417 0.000000
v 53.669628 34.277283 0.000000
v 80.627533 50.791183 0.000000
v 49.202358 37.072937 0.000000
v 50.631710 35.055080 0.000000
v 88.985703 50.023666 0.000000
v 94.338593 42.752232 0.000000
v 15.116325 79.825714 0.000000
v 25.569252 73.118256 0.000000
v 3.087120 80.253632 0.000000
v -4.609665 83.514771 0.000000
v 7.011673 85.145401 0.000000
v 51.631950 34.299843 0.000000
v 32.782234 67.391846 0.000000
v 34.062370 67.989914 0.000000
v 51.183041 13.860472 0.000000
v 49.454243 13.584648 0.000000
v -11.431892 84.707809 0.000000
v -17.749939 84.737839 0.000000
v -10.053215 90.723228 0.000000
v -1.308441 88.812653 0.000000
v -61.701340 81.421410 0.000000
v -56.974159 83.236923 0.000000
v -56.330994 76.758133 0.000000
v -61.058182 74.942619 0.000000
v -67.164619 72.597397 0.000000
v -127.335510 67.524544 0.000000
v -120.161697 68.688950 0.000000
v -145.444656 58.402428 0.000000
v -142.257629 61.418903 0.000000
v -157.363770 40.643250 0.000000
v -148.429245 55.183517 0.000000
v -168.239136 23.310974 0.000000
v -138.353592 63.932983 0.000000
v -134.509293 65.955246 0.000000
v -166.239120 10.050583 0.000000
v -169.033905 15.273937 0.000000
v -169.097031 19.327858 0.000000
v -163.060059 7.390961 0.000000
v -109.995789 70.625877 0.000000
v -111.086151 61.645935 0.000000
v 82.026787 4.422117 0.000000
v 82.136147 3.372395 0.000000
v 101.030533 20.007303 0.000000
v 99.372673 19.487755 0.000000
v 87.202713 -0.078522 0.000000
v 145.170212 -43.984886 0.000000
v 152.418152 -53.497643 0.000000
v 145.904327 -56.856667 0.000000
v 139.675674 -48.851158 0.000000
v 154.748535 -58.264458 0.000000
v 156.488449 -63.368690 0.000000
v 148.289093 -71.276566 0.000000
v 148.683990 -64.016426 0.000000
v 155.778091 -72.829422 0.000000
v 147.589401 -60.267830 0.000000
v 152.235138 -81.709389 0.000000
v 140.738922 -88.091301 0.000000
v 145.200134 -79.340881 0.000000
v 76.160088 -108.100761 0.000000
v 80.838493 -110.856972 0.000000
v 69.198364 -127.999718 0.000000
v 102.145309 32.869659 0.000000
v 102.824272 32.010509 0.000000
v 96.078171 40.744385 0.000000
v 76.620560 66.203331 0.000000
v 87.312943 52.254017 0.000000
v 109.050285 24.132261 0.000000
v 142.213715 -19.754181 0.000000
v 136.501694 -24.010193 0.000000
v 104.456123 19.609940 0.000000
v 157.851471 -38.524940 0.000000
v 152.139465 -42.780952 0.000000
v 168.545151 -45.803719 0.000000
v 165.932297 -52.430450 0.000000
v 180.636597 -48.180153 0.000000
v 176.779282 -54.631676 0.000000
v 16.932495 58.263680 0.000000
v 14.212631 57.885292 0.201269
v 41.054817 13.160884 0.000000
v 42.075912 14.885021 0.000000
v 47.203407 11.631836 0.000000
v 21.310753 -30.966866 0.000000
v 16.700050 -27.962616 0.000000
v 114.193947 -28.377632 0.000000
v 114.603096 -27.863586 0.000000
v 53.941833 85.867241 0.000000
v 43.210541 99.972603 0.000000
v -147.410324 6.475170 0.000000
v -153.244797 4.000111 0.000000
v -143.340759 10.347431 0.000000
v -156.461655 4.365734 0.000000
v -159.577301 5.035019 0.000000
v -137.012589 12.134212 0.000000
v -126.683990 31.074554 0.000000
v 42.491783 17.539425 0.000000
v 40.039734 19.446379 0.000000
v 44.489895 7.167553 0.000000
v 88.591957 11.196373 0.000000
v 113.640190 -16.302864 0.000000
v 114.087860 -16.564697 0.000000
v 101.802803 -9.102196 0.000000
v 113.192520 -16.041031 0.000000
v 120.201065 -20.337257 0.000000
v 130.161606 -27.161942 0.000000
v 131.601974 -28.582932 0.000000
v 125.970810 -34.110001 0.000000
v 125.250221 -33.784149 0.000000
v 112.132469 -27.059498 0.000000
v 110.315094 -27.114079 0.000000
v 71.627487 -114.909966 0.000000
v 80.327026 -150.296448 0.000000
v 78.861633 -158.452911 0.000000
v 87.400513 -150.888184 0.000000
v 87.868553 -158.835999 0.000000
v 93.655228 -149.246002 0.000000
v 98.414597 -146.418152 0.000000
v 102.124115 -153.849243 0.000000
v 95.746147 -157.101868 0.000000
v 102.242897 -143.180115 0.000000
v 108.019760 -149.557556 0.000000
v 106.971085 -138.434967 0.000000
v 111.311874 -132.874451 0.000000
v 118.515823 -138.189117 0.000000
v 113.730774 -143.737549 0.000000
v 115.618317 -126.972923 0.000000
v 122.759888 -132.241577 0.000000
v 126.511887 -125.983253 0.000000
v 138.038300 -92.271324 0.000000
v 31.223463 19.205288 0.000000
v 26.116365 22.302547 0.000000
v 34.221375 17.387171 0.000000
v 22.101122 24.737637 0.000000
v 37.479061 15.411509 0.000000
v 50.192940 79.942596 0.000000
v 53.261726 76.223969 0.000000
v 39.453331 65.786865 0.000000
v 51.526867 51.071850 0.000000
v 53.816532 38.638401 0.000000
v 48.016598 56.841866 0.000000
v 49.465012 55.087429 0.000000
v 50.666794 53.067436 0.000000
v 121.796570 -37.218872 0.000000
v 114.858185 -31.921631 0.000000
v 112.630806 -30.341576 0.000000
v 124.500961 -34.104721 0.000000
v 147.319946 -91.275482 0.000000
v -26.948746 89.724892 0.000000
v -18.393097 91.216644 0.000000
v -18.526108 83.886902 0.000000
v -18.612305 82.838287 0.000000
v -24.745193 82.687897 0.000000
v -26.305588 83.246094 0.000000
v -11.612583 72.950897 0.000000
v -16.585983 70.778656 0.000000
v -24.070953 81.886536 0.000000
v -9.858398 71.110474 0.000000
v -7.197678 69.546997 0.000000
v -16.241875 69.160233 0.000000
v -5.725288 63.388828 -0.000645
v -14.307274 61.631809 -0.000094
v 2.864548 71.557404 0.000000
v 4.327156 65.448044 0.000000
v -20.041443 62.422646 0.000000
v -20.759430 66.545532 0.000000
v -16.804298 67.264854 0.000000
v -117.863846 52.493290 0.000000
v -129.039703 34.839874 0.000000
v -111.409561 59.978790 0.000000
v -110.872269 58.742004 0.000000
v -116.229095 52.762131 0.000000
v -93.458740 42.508957 0.000000
v -98.308289 36.154007 0.000000
v -115.311615 52.026836 0.000000
v -118.770538 46.686874 0.000000
v 55.836502 20.605131 0.000000
v 56.577648 18.287354 0.000000
v 85.180748 37.714561 0.000000
v 58.102901 25.183550 0.000000
v 95.662262 26.844259 0.000000
v 96.629471 28.494896 0.000000
v 82.859695 17.107883 0.000000
v 94.481560 25.730255 0.000000
v 73.412537 10.478065 0.000000
v 55.791443 21.845575 0.000000
v 69.164093 10.445351 0.000000
v 86.869339 37.975189 0.000000
v 36.743607 46.349670 0.000000
v 41.582813 47.176880 0.000000
v 37.738922 27.924332 0.000000
v 39.701904 27.314064 0.000000
v 41.487457 27.687267 0.000000
v 43.069080 28.823067 0.000000
v 28.522861 60.913933 0.000000
v 26.954983 60.842663 0.000000
v 41.343658 48.305817 0.000000
v 40.860424 49.556793 0.000000
v 43.056648 32.626289 0.000000
v 39.056705 32.297909 0.000000
v 43.364712 29.971827 0.000000
v 43.254791 31.096247 0.000000
v 39.851635 51.047134 0.000000
v 29.648716 60.338432 0.000000
v 29.085789 60.626183 0.000000
v 107.410759 -23.959953 0.000000
v 108.293518 -23.778362 0.000000
v 102.789627 -22.312515 0.000000
v 105.932449 -24.053680 0.000000
v 97.177582 -16.536659 0.000000
v 99.033249 -20.130455 0.000000
v 98.071007 -15.420765 0.000000
v 97.443504 -15.605988 0.000000
v 109.535553 -23.425251 0.000000
v 109.777283 -23.206387 0.000000
v 106.528015 -24.141541 0.000000
v 99.326401 -20.393837 0.000000
v 109.568756 -22.423557 0.000000
v 97.159172 -16.009827 0.000000
v 109.841187 -22.830429 0.000000
v 96.236710 30.217377 0.000000
v 90.781616 37.052910 0.000000
v 71.973030 9.850998 0.000000
v 82.517609 5.742847 0.000000
v 52.752419 13.352581 0.000000
v 25.434685 60.408203 0.000000
v 24.163151 59.468384 0.000000
v 30.803444 68.045792 0.000000
v 31.737263 67.550659 0.000000
v 10.644291 75.382492 0.000000
v -44.120857 80.139847 0.000000
v -80.653854 75.787323 0.000000
v -74.166611 77.115768 0.000000
v -67.807770 79.076195 0.000000
v -73.523430 70.636971 0.000000
v -81.023880 69.161942 0.000000
v -50.923340 85.177773 0.000000
v -44.764008 86.618637 0.000000
v -50.280197 78.698975 0.000000
v 114.415321 -27.148788 0.000000
v 113.949844 -27.004917 0.000000
v 114.641525 -27.635796 0.000000
v 114.602966 -27.328945 0.000000
v -130.684418 13.920994 0.000000
v 89.013191 38.064079 0.000000
v 95.998711 -5.382477 0.000000
v 12.979679 71.294586 0.000000
v -99.955109 34.058174 0.000000
v 94.439163 -16.035526 0.000000
v 92.745888 -12.512161 0.000000
v 96.874420 -5.927761 0.000000
v 15.027962 66.140320 0.000000
v 133.244415 -114.753410 0.000000
v 128.699097 -122.334999 0.000000
v 119.230164 -121.382545 0.001270
v -107.989487 62.166325 0.000000
v -90.412582 46.543873 0.000000
v 46.161518 9.917717 0.000000
v 40.556190 12.318947 0.000000
v 144.679581 -95.679588 0.000000
v 126.342148 -110.374611 0.000000
v 14.636765 67.445435 0.000000
v 13.763073 69.713127 0.000000
v 92.039757 -11.705559 0.000000
v 95.392281 -18.265816 0.000000
v 63.702526 0.170765 0.000000
v 49.878727 8.857891 0.000000
v 74.919922 -6.838303 0.000000
v 80.930779 -10.593552 0.000000
v 89.377403 -15.865772 0.000000
v 107.431854 -27.199383 0.000000
v 64.602478 -125.462578 0.000000
v 65.155006 -124.632576 0.000000
v 72.544739 -126.594994 0.000000
v 79.002327 -129.746643 0.000000
v 76.526825 -117.762016 0.000000
v 83.606560 -121.736961 0.000000
v 77.460930 -118.286476 0.000000
v 70.497589 -126.858238 0.000000
v 70.382843 64.256950 0.000000
v 60.138153 77.722717 0.000000
v 59.461079 88.589630 0.000000
v 65.928169 80.152649 0.000000
v 48.260826 103.201523 0.000000
v 36.266258 108.810791 0.000000
v 41.316544 112.039696 0.000000
v 22.536686 35.453407 0.000000
v 27.325266 37.741920 0.000000
v -16.084206 63.141998 0.000000
v 121.933861 -117.197762 0.000000
v -94.835281 73.603500 0.000000
v 21.657661 64.963562 0.000000
v 21.577066 67.084747 0.000000
v 88.610931 39.476078 0.000000
v 24.153263 62.054314 0.000000
v 83.253510 46.921402 0.000000
v 46.583431 49.046829 0.000000
v 46.188622 50.858364 0.000000
v 35.224609 63.702282 0.000000
v 28.596931 26.807583 0.000000
v 33.894329 23.338388 0.000000
v 37.084705 21.224415 0.000000
v 66.632774 4.702684 0.000000
v -86.502930 74.979332 0.000000
v -152.634460 37.142380 0.000000
v -147.392624 16.361500 0.000000
v -143.446838 23.189842 0.000000
v -136.179337 34.752678 0.000000
v 77.940559 -2.493299 0.000000
v 83.585526 -6.464962 0.000000
v 115.310715 -26.324539 0.000000
v 118.270439 -27.992359 0.000000
v 44.179565 54.543636 0.000000
v 45.793816 52.669899 0.000000
v 117.562576 -28.807476 0.000000
v -136.906326 33.596016 0.000000
v 97.044975 -22.133125 0.000000
v 97.541573 -22.656826 0.000000
v 106.227455 -27.197586 0.000000
v 105.304642 -26.987804 0.000000
v 101.611374 -24.927349 0.000000
v 119.455956 -121.033043 0.000000
v -14.653122 63.412155 0.000000
v -142.798187 24.221874 0.000000
v 121.693085 -117.570442 0.000000
vn 0.000000 0.000000 1.000000
vn 0.000000 0.000000 1.000000
vn 0.000000 0.000000 1.000000
vn 0.000000 0.000000 1.000000
vn 0.000000 0.000000 1.000000
vn 0.000000 0.000000 1.000000
vn 0.000000 0.000000 1.000000
vn 0.000000 0.000000 1.000000
vn 0.000000 0.000000 1.000000
vn 0.000000 0.000000 1.000000
vn 0.000000 0.000000 1.000000
vn 0.000000 0.000000 1.000000
vn 0.000000 0.000000 1.000000
vn 0.000000 0.000000 1.000000
vn 0.000000 0.000000 1.000000
vn 0.000000 0.000000 1.000000
vn 0.000000 0.000000 1.000000
vn 0.000000 0.000000 1.000000
vn 0.000000 0.000000 1.000000
vn 0.000000 0.000000 1.000000
vn 0.000000 0.000000 1.000000
vn 0.000000 0.000000 1.000000
vn 0.000000 0.000000 1.000000
vn 0.000000 0.000000 1.000000
vn 0.000000 0.000000 1.000000
vn 0.000000 0.000000 1.000000
vn 0.000000 0.000000 1.000000
vn 0.000000 0.000000 1.000000
vn 0.000000 0.000000 1.000000
vn 0.000000 0.000000 1.000000
vn 0.000000 0.000000 1.000000
vn 0.000000 0.000000 1.000000
vn 0.000000 0.000000 1.000000
vn 0.000000 0.000000 1.000000
vn 0.000000 0.000000 1.000000
vn 0.000000 0.000000 1.000000
vn 0.000000 0.000000 1.000000
vn 0.000000 0.000000 1.000000
vn 0.000000 0.000000 1.000000
vn 0.000000 0.000000 1.000000
vn 0.000000 0.000000 1.000000
vn 0.182806 -0.983149 0.000000
vn 0.154234 -0.988034 0.000000
vn 0.136840 -0.990593 0.000000
vn 0.192724 -0.981253 0.000000
vn 0.001061 -0.015786 0.999875
vn -0.034287 -0.015295 0.999295
vn 0.023775 0.005268 0.999703
vn 0.070981 0.015669 0.997355
vn -0.022288 0.010802 0.999693
vn 0.011878 -0.014482 0.999825
vn 0.000000 0.000000 1.000000
vn 0.000000 0.000000 1.000000
vn 0.000000 0.000000 1.000000
vn 0.000000 0.000000 1.000000
vn 0.000000 0.000000 1.000000
vn 0.000000 0.000000 1.000000
vn 0.000000 0.000000 1.000000
vn 0.000000 0.000000 1.000000
vn 0.000000 0.000000 1.000000
vn 0.000000 0.000000 1.000000
vn 0.000000 0.000000 1.000000
vn 0.000000 0.000000 1.000000
vn 0.000000 0.000000 1.000000
vn 0.000000 0.000000 1.000000
vn 0.000000 0.000000 1.000000
vn 0.000000 0.000000 1.000000
vn 0.000000 0.000000 1.000000
vn 0.000000 0.000000 1.000000
vn 0.000000 0.000000 1.000000
vn 0.000000 0.000000 1.000000
vn 0.000000 0.000000 1.000000
vn 0.000000 0.000000 1.000000
vn 0.000000 0.000000 1.000000
vn 0.000000 0.000000 1.000000
vn 0.000000 0.000000 1.000000
vn 0.000000 0.000000 1.000000
vn 0.000000 0.000000 1.000000
vn 0.000000 0.000000 1.000000
vn 0.000000 0.000000 1.000000
vn 0.000000 0.000000 1.000000
vn 0.000000 0.000000 1.000000
vn 0.000000 0.000000 1.000000
vn 0.000000 0.000000 1.000000
vn 0.000000 0.000000 1.000000
vn 0.000000 0.000000 1.000000
vn 0.000000 0.000000 1.000000
vn 0.000000 0.000000 1.000000
vn 0.000000 0.000000 1.000000
vn 0.000000 0.000000 1.000000
vn 0.000000 0.000000 1.000000
vn 0.000000 0.000000 1.000000
vn 0.000000 0.000000 1.000000
vn 0.000000 0.000000 1.000000
vn 0.106904 -0.544301 0.832050
vn 0.000000 0.000000 1.000000
vn 0.000000 0.000000 1.000000
vn 0.000000 0.000000 1.000000
vn 0.000000 0.000000 1.000000
vn 0.000000 0.000000 1.000000
vn 0.000000 0.000000 1.000000
vn 0.000000 0.000000 1.000000
vn 0.000000 0.000000 1.000000
vn 0.000000 0.000000 1.000000
vn 0.000000 0.000000 1.000000
vn 0.000000 0.000000 1.000000
vn 0.000000 0.000000 1.000000
vn 0.000000 0.000000 1.000000
vn 0.000000 0.000000 1.000000
vn 0.000000 0.000000 1.000000
vn 0.000000 0.000000 1.000000
vn 0.000000 0.000000 1.000000
vn 0.000000 0.000000 1.000000
vn 0.000000 0.000000 1.000000
vn 0.000000 0.000000 1.000000
vn 0.000000 0.000000 1.000000
vn 0.000000 0.000000 1.000000
vn 0.000000 0.000000 1.000000
vn 0.000000 0.000000 1.000000
vn 0.000000 0.000000 1.000000
vn 0.000000 0.000000 1.000000
vn 0.000000 0.000000 1.000000
vn 0.000000 0.000000 1.000000
vn 0.000000 0.000000 1.000000
vn 0.000000 0.000000 1.000000
vn 0.000000 0.000000 1.000000
vn 0.000000 0.000000 1.000000
vn 0.000000 0.000000 1.000000
vn 0.000000 0.000000 1.000000
vn 0.000000 0.000000 1.000000
vn 0.000000 0.000000 1.000000
vn 0.000000 0.000000 1.000000
vn 0.017906 0.003981 0.999832
vn 0.071283 0.015793 0.997331
vn 0.000000 0.000000 1.000000
vn 0.000000 0.000000 1.000000
vn 0.000000 0.000000 1.000000
vn 0.000000 0.000000 1.000000
vn 0.000000 0.000000 1.000000
vn 0.000000 0.000000 1.000000
vn 0.000000 0.000000 1.000000
vn 0.000000 0.000000 1.000000
vn 0.000000 0.000000 1.000000
vn 0.000000 0.000000 1.000000
vn 0.000000 0.000000 1.000000
vn 0.000000 0.000000 1.000000
vn 0.000000 0.000000 1.000000
vn 0.000000 0.000000 1.000000
vn 0.000000 0.000000 1.000000
vn 0.000000 0.000000 1.000000
vn 0.000000 0.000000 1.000000
vn 0.000000 0.000000 1.000000
vn 0.000000 0.000000 1.000000
vn 0.000000 0.000000 1.000000
vn 0.000000 0.000000 1.000000
vn 0.000000 0.000000 1.000000
vn 0.000000 0.000000 1.000000
vn 0.000000 0.000000 1.000000
vn 0.000000 0.000000 1.000000
vn 0.000000 0.000000 1.000000
vn 0.000000 0.000000 1.000000
vn 0.000000 0.000000 1.000000
vn 0.000000 0.000000 1.000000
vn 0.000000 0.000000 1.000000
vn 0.000000 0.000000 1.000000
vn 0.000000 0.000000 1.000000
vn 0.000000 0.000000 1.000000
vn 0.000000 0.000000 1.000000
vn 0.000000 0.000000 1.000000
vn 0.000000 0.000000 1.000000
vn 0.000000 0.000000 1.000000
vn 0.000000 0.000000 1.000000
vn 0.000000 0.000000 1.000000
vn 0.000000 0.000000 1.000000
vn 0.000000 0.000000 1.000000
vn 0.000000 0.000000 1.000000
vn 0.000000 0.000000 1.000000
vn 0.000000 0.000000 1.000000
vn 0.000000 0.000000 1.000000
vn 0.000000 0.000000 1.000000
vn -0.000057 -0.000077 1.000000
vn 0.000003 -0.000057 1.000000
vn 0.000627 0.000808 0.999999
vn 0.000000 0.000000 1.000000
vn 0.000000 0.000000 1.000000
vn 0.000000 0.000000 1.000000
vn 0.000000 0.000000 1.000000
vn 0.000000 0.000000 1.000000
vn 0.000000 0.000000 1.000000
vn 0.000000 0.000000 1.000000
vn 0.000000 0.000000 1.000000
vn 0.000000 0.000000 1.000000
vn 0.000000 0.000000 1.000000
vn 0.000000 0.000000 1.000000
vn 0.000000 0.000000 1.000000
vn 0.000000 0.000000 1.000000
vn 0.000000 0.000000 1.000000
vn 0.000000 0.000000 1.000000
vn 0.000000 0.000000 1.000000
vn 0.000000 0.000000 1.000000
vn 0.000000 0.000000 1.000000
vn 0.000000 0.000000 1.000000
vn 0.000000 0.000000 1.000000
vn 0.000000 0.000000 1.000000
vn 0.000000 0.000000 1.000000
vn 0.000000 0.000000 1.000000
vn 0.000000 0.000000 1.000000
vn 0.000000 0.000000 1.000000
vn 0.000000 0.000000 1.000000
vn 0.000000 0.000000 1.000000
vn 0.000000 0.000000 1.000000
vn 0.000000 0.000000 1.000000
vn 0.000013 -0.000041 1.000000
vn 0.000000 0.000000 1.000000
vn 0.000020 -0.000100 1.000000
vn 0.000060 -0.000065 1.000000
vn 0.000000 0.000000 1.000000
vn -0.000020 -0.000057 1.000000
vn 0.000000 0.000000 1.000000
vn 0.000000 0.000000 1.000000
vn 0.000000 0.000000 1.000000
vn 0.000000 0.000000 1.000000
vn 0.000000 0.000000 1.000000
vn 0.000000 0.000000 1.000000
vn 0.000000 0.000000 1.000000
vn 0.000000 0.000000 1.000000
vn 0.000000 0.000000 1.000000
vn 0.000000 0.000000 1.000000
vn 0.000000 0.000000 1.000000
vn 0.000000 0.000000 1.000000
vn 0.000000 0.000000 1.000000
vn 0.000000 0.000000 1.000000
vn 0.000000 0.000000 1.000000
vn 0.000000 0.000000 1.000000
vn 0.000000 0.000000 1.000000
vn 0.000000 0.000000 1.000000
vn 0.000000 0.000000 1.000000
vn 0.000000 0.000000 1.000000
vn 0.000000 0.000000 1.000000
vn 0.000000 0.000000 1.000000
vn 0.000000 0.000000 1.000000
vn 0.000000 0.000000 1.000000
vn 0.000000 0.000000 1.000000
vn 0.000000 0.000000 1.000000
vn 0.000000 0.000000 1.000000
vn 0.000000 0.000000 1.000000
vn 0.000000 0.000000 1.000000
vn 0.000000 0.000000 1.000000
vn 0.000000 0.000000 1.000000
vn 0.000000 0.000000 1.000000
vn 0.000000 0.000000 1.000000
vn 0.000000 0.000000 1.000000
vn 0.000000 0.000000 1.000000
vn 0.000000 0.000000 1.000000
vn 0.000000 0.000000 1.000000
vn 0.000000 0.000000 1.000000
vn 0.000000 0.000000 1.000000
vn 0.000000 0.000000 1.000000
vn 0.000000 0.000000 1.000000
vn 0.000000 0.000000 1.000000
vn 0.000000 0.000000 1.000000
vn 0.000000 0.000000 1.000000
vn 0.000000 0.000000 1.000000
vn 0.000000 0.000000 1.000000
vn 0.000000 0.000000 1.000000
vn 0.000000 0.000000 1.000000
vn 0.000000 0.000000 1.000000
vn 0.000000 0.000000 1.000000
vn 0.000000 0.000000 1.000000
vn 0.000000 0.000000 1.000000
vn 0.000000 0.000000 1.000000
vn 0.000000 0.000000 1.000000
vn 0.000000 0.000000 -1.000000
vn 0.000000 0.000000 1.000000
vn 0.000000 0.000000 1.000000
vn 0.000000 0.000000 1.000000
vn 0.000000 0.000000 1.000000
vn 0.000000 0.000000 1.000000
vn 0.000000 0.000000 1.000000
vn 0.000000 0.000000 1.000000
vn 0.000000 0.000000 1.000000
vn 0.000000 0.000000 1.000000
vn 0.000000 0.000000 1.000000
vn 0.000000 0.000000 1.000000
vn 0.000000 0.000000 1.000000
vn 0.043273 -0.313253 0.948683
vn 0.000000 0.000000 1.000000
vn 0.000000 0.000000 1.000000
vn 0.000000 0.000000 1.000000
vn 0.000000 0.000000 1.000000
vn 0.000000 0.000000 1.000000
vn 0.000000 0.000000 1.000000
vn 0.000000 0.000000 1.000000
vn 0.000000 0.000000 1.000000
vn 0.000000 0.000000 1.000000
vn 0.000000 0.000000 1.000000
vn 0.000000 0.000000 1.000000
vn 0.000000 0.000000 1.000000
vn 0.000000 0.000000 1.000000
vn 0.000000 0.000000 1.000000
vn 0.000000 0.000000 1.000000
vn 0.000000 0.000000 1.000000
vn 0.000000 0.000000 1.000000
vn 0.000000 0.000000 1.000000
vn 0.000000 0.000000 1.000000
vn 0.000000 0.000000 1.000000
vn 0.000000 0.000000 1.000000
vn 0.000000 0.000000 1.000000
vn 0.000589 0.000757 1.000000
vn 0.000000 0.000000 1.000000
vn 0.000000 0.000000 1.000000
vn 0.000000 0.000000 1.000000
vn 0.000000 0.000000 1.000000
vn 0.000000 0.000000 1.000000
vn 0.000000 0.000000 1.000000
vn 0.000000 0.000000 1.000000
vn 0.000000 0.000000 1.000000
vn 0.000000 0.000000 1.000000
vn 0.000000 0.000000 1.000000
vn 0.000000 0.000000 1.000000
vn 0.000000 0.000000 1.000000
vn 0.000000 0.000000 1.000000
vn 0.000000 0.000000 1.000000
vn 0.000000 0.000000 1.000000
vn 0.000000 0.000000 1.000000
vn 0.000000 0.000000 1.000000
vn 0.000000 0.000000 1.000000
vn 0.000000 0.000000 1.000000
vn 0.000000 0.000000 1.000000
vn 0.000000 0.000000 1.000000
vn 0.000000 0.000000 1.000000
vn 0.000000 0.000000 1.000000
vn 0.000000 0.000000 1.000000
vn 0.000000 0.000000 1.000000
vn 0.000000 0.000000 1.000000
vn 0.000000 0.000000 1.000000
vn 0.000000 0.000000 1.000000
vn 0.000000 0.000000 1.000000
vn 0.000000 0.000000 1.000000
vn 0.000000 0.000000 1.000000
vn -0.031116 0.035474 0.998886
vn -0.018693 0.039113 0.999060
vn 0.000000 0.000000 1.000000
vn 0.000000 0.000000 1.000000
vn 0.122230 -0.696426 0.707143
vn 0.000000 0.000000 1.000000
vn 0.000000 0.000000 1.000000
vn 0.000000 0.000000 1.000000
vn 0.000000 0.000000 1.000000
vn 0.000000 0.000000 1.000000
vn 0.000000 0.000000 1.000000
vn 0.000000 0.000000 1.000000
vn 0.000000 0.000000 1.000000
vn 0.000000 0.000000 1.000000
vn 0.000000 0.000000 1.000000
vn 0.000000 0.000000 1.000000
vn 0.000000 0.000000 1.000000
vn 0.102910 -0.699550 0.707134
vn 0.000000 0.000000 1.000000
vn 0.000000 0.000000 1.000000
vn 0.000000 0.000000 1.000000
vn 0.000000 0.000000 1.000000
vn 0.000000 0.000000 1.000000
vn 0.000000 0.000000 1.000000
vn 0.000000 0.000000 1.000000
vn 0.000000 0.000000 1.000000
vn 0.000000 0.000000 1.000000
vn 0.000000 0.000000 1.000000
vn 0.000000 0.000000 1.000000
vn 0.000000 0.000000 1.000000
vn 0.000000 0.000000 1.000000
vn 0.000000 0.000000 1.000000
vn 0.000000 0.000000 1.000000
vn 0.000000 0.000000 1.000000
vn 0.000000 0.000000 1.000000
vn 0.000585 0.000833 0.999999
vn 0.000012 -0.000015 1.000000
vn 0.000000 0.000000 1.000000
vn 0.000000 0.000000 1.000000
f 80//80 77//77 288//288
f 80//80 288//288 81//81
f 35//35 91//91 94//94
f 35//35 94//94 38//38
f 2//2 345//345 95//95
f 2//2 95//95 3//3
f 346//346 306//306 133//133
f 346//346 133//133 53//53
f 239//239 278//278 154//154
f 239//239 154//154 237//237
f 249//249 282//282 64//64
f 249//249 64//64 347//347
f 164//164 268//268 261//261
f 164//164 261//261 165//165
f 208//208 203//203 292//292
f 208//208 292//292 285//285
f 348//348 233//233 242//242
f 348//348 242//242 299//299
f 348//348 299//299 276//276
f 281//281 349//349 346//346
f 281//281 346//346 53//53
f 57//57 248//248 151//151
f 57//57 151//151 234//234
f 350//350 348//348 62//62
f 350//350 62//62 61//61
f 347//347 64//64 63//63
f 347//347 63//63 284//284
f 253//253 59//59 351//351
f 253//253 351//351 244//244
f 65//65 67//67 76//76
f 65//65 76//76 66//66
f 256//256 60//60 59//59
f 256//256 59//59 253//253
f 255//255 68//68 60//60
f 255//255 60//60 256//256
f 352//352 251//251 244//244
f 352//352 244//244 351//351
f 69//69 353//353 192//192
f 69//69 192//192 70//70
f 347//347 284//284 301//301
f 347//347 301//301 346//346
f 52//52 354//354 355//355
f 52//52 355//355 245//245
f 55//55 233//233 348//348
f 55//55 348//348 350//350
f 246//246 245//245 355//355
f 246//246 355//355 356//356
f 231//231 71//71 279//279
f 231//231 279//279 232//232
f 232//232 279//279 357//357
f 232//232 357//357 241//241
f 73//73 75//75 204//204
f 73//73 204//204 74//74
f 79//79 78//78 77//77
f 79//79 77//77 80//80
f 290//290 286//286 358//358
f 290//290 358//358 4//4
f 13//13 82//82 90//90
f 13//13 90//90 14//14
f 31//31 84//84 87//87
f 31//31 87//87 15//15
f 15//15 87//87 86//86
f 15//15 86//86 359//359
f 359//359 86//86 88//88
f 359//359 88//88 8//8
f 19//19 89//89 85//85
f 19//19 85//85 27//27
f 34//34 92//92 91//91
f 34//34 91//91 35//35
f 32//32 93//93 92//92
f 32//32 92//92 34//34
f 38//38 94//94 148//148
f 38//38 148//148 5//5
f 360//360 146//146 23//23
f 360//360 23//23 361//361
f 6//6 147//147 145//145
f 6//6 145//145 33//33
f 362//362 30//30 223//223
f 362//362 223//223 24//24
f 10//10 96//96 3//3
f 10//10 3//3 26//26
f 3//3 95//95 83//83
f 3//3 83//83 26//26
f 241//241 357//357 363//363
f 241//241 363//363 98//98
f 241//241 98//98 97//97
f 241//241 97//97 277//277
f 98//98 363//363 364//364
f 98//98 364//364 101//101
f 159//159 365//365 366//366
f 102//102 105//105 104//104
f 102//102 104//104 103//103
f 107//107 109//109 108//108
f 107//107 108//108 110//110
f 106//106 111//111 109//109
f 106//106 109//109 107//107
f 112//112 114//114 113//113
f 112//112 113//113 202//202
f 166//166 330//330 116//116
f 166//166 116//116 115//115
f 276//276 275//275 118//118
f 276//276 118//118 120//120
f 234//234 151//151 72//72
f 234//234 72//72 240//240
f 235//235 99//99 126//126
f 235//235 126//126 236//236
f 142//142 336//336 338//338
f 142//142 338//338 143//143
f 123//123 126//126 125//125
f 123//123 125//125 124//124
f 124//124 125//125 128//128
f 124//124 128//128 127//127
f 127//127 128//128 130//130
f 127//127 130//130 129//129
f 129//129 130//130 132//132
f 129//129 132//132 131//131
f 367//367 368//368 196//196
f 367//367 196//196 195//195
f 50//50 47//47 46//46
f 50//50 46//46 51//51
f 53//53 133//133 48//48
f 53//53 48//48 54//54
f 153//153 313//313 139//139
f 153//153 139//139 138//138
f 51//51 46//46 354//354
f 51//51 354//354 52//52
f 305//305 304//304 266//266
f 305//305 266//266 157//157
f 369//369 140//140 200//200
f 369//369 200//200 199//199
f 155//155 274//274 269//269
f 155//155 269//269 156//156
f 247//247 246//246 356//356
f 247//247 356//356 152//152
f 350//350 61//61 122//122
f 350//350 122//122 58//58
f 350//350 58//58 56//56
f 350//350 56//56 55//55
f 348//348 276//276 120//120
f 348//348 120//120 62//62
f 234//234 233//233 55//55
f 234//234 55//55 57//57
f 347//347 346//346 349//349
f 347//347 349//349 250//250
f 347//347 250//250 249//249
f 144//144 37//37 33//33
f 144//144 33//33 145//145
f 37//37 144//144 146//146
f 37//37 146//146 360//360
f 36//36 149//149 298//298
f 36//36 298//298 11//11
f 11//11 298//298 1//1
f 11//11 1//1 12//12
f 370//370 40//40 30//30
f 370//370 30//30 362//362
f 150//150 29//29 12//12
f 150//150 12//12 1//1
f 248//248 247//247 152//152
f 248//248 152//152 151//151
f 72//72 151//151 136//136
f 72//72 136//136 137//137
f 237//237 154//154 100//100
f 237//237 100//100 238//238
f 265//265 371//371 372//372
f 265//265 372//372 271//271
f 325//325 260//260 270//270
f 325//325 270//270 373//373
f 374//374 373//373 270//270
f 374//374 270//270 263//263
f 303//303 267//267 266//266
f 303//303 266//266 304//304
f 157//157 266//266 272//272
f 157//157 272//272 158//158
f 375//375 374//374 263//263
f 375//375 263//263 262//262
f 264//264 303//303 319//319
f 163//163 160//160 159//159
f 163//163 159//159 366//366
f 161//161 162//162 105//105
f 161//161 105//105 102//102
f 183//183 376//376 309//309
f 167//167 168//168 170//170
f 167//167 170//170 169//169
f 171//171 174//174 173//173
f 171//171 173//173 172//172
f 172//172 173//173 176//176
f 172//172 176//176 175//175
f 174//174 171//171 169//169
f 174//174 169//169 170//170
f 177//177 180//180 179//179
f 177//177 179//179 178//178
f 178//178 179//179 182//182
f 178//178 182//182 181//181
f 180//180 177//177 175//175
f 180//180 175//175 176//176
f 356//356 355//355 185//185
f 356//356 185//185 187//187
f 354//354 46//46 188//188
f 354//354 188//188 186//186
f 152//152 356//356 187//187
f 152//152 187//187 189//189
f 355//355 354//354 186//186
f 355//355 186//186 185//185
f 253//253 244//244 243//243
f 253//253 243//243 254//254
f 69//69 283//283 259//259
f 69//69 259//259 258//258
f 69//69 258//258 353//353
f 70//70 192//192 191//191
f 70//70 191//191 190//190
f 351//351 59//59 194//194
f 351//351 194//194 193//193
f 352//352 351//351 193//193
f 352//352 193//193 197//197
f 257//257 252//252 368//368
f 257//257 368//368 367//367
f 156//156 269//269 365//365
f 156//156 365//365 159//159
f 201//201 369//369 199//199
f 201//201 199//199 198//198
f 110//110 108//108 114//114
f 110//110 114//114 112//112
f 74//74 204//204 203//203
f 74//74 203//203 208//208
f 205//205 207//207 211//211
f 205//205 211//211 206//206
f 206//206 211//211 210//210
f 206//206 210//210 209//209
f 212//212 214//214 221//221
f 212//212 221//221 213//213
f 213//213 377//377 216//216
f 213//213 216//216 215//215
f 213//213 215//215 218//218
f 213//213 218//218 217//217
f 9//9 222//222 96//96
f 9//9 96//96 10//10
f 24//24 223//223 222//222
f 24//24 222//222 9//9
f 224//224 226//226 229//229
f 224//224 229//229 225//225
f 225//225 229//229 228//228
f 225//225 228//228 227//227
f 362//362 24//24 28//28
f 362//362 28//28 18//18
f 360//360 361//361 21//21
f 360//360 21//21 20//20
f 37//37 360//360 20//20
f 37//37 20//20 25//25
f 370//370 362//362 18//18
f 370//370 18//18 17//17
f 359//359 8//8 7//7
f 359//359 7//7 39//39
f 15//15 359//359 39//39
f 15//15 39//39 16//16
f 275//275 236//236 119//119
f 275//275 119//119 118//118
f 119//119 236//236 126//126
f 119//119 126//126 123//123
f 278//278 239//239 277//277
f 278//278 277//277 97//97
f 240//240 72//72 71//71
f 240//240 71//71 231//231
f 259//259 283//283 282//282
f 259//259 282//282 249//249
f 368//368 352//352 197//197
f 368//368 197//197 196//196
f 368//368 252//252 251//251
f 368//368 251//251 352//352
f 258//258 257//257 367//367
f 258//258 367//367 353//353
f 353//353 367//367 195//195
f 353//353 195//195 192//192
f 158//158 272//272 274//274
f 158//158 274//274 155//155
f 103//103 104//104 111//111
f 103//103 111//111 106//106
f 74//74 208//208 207//207
f 74//74 207//207 205//205
f 209//209 210//210 214//214
f 209//209 214//214 212//212
f 284//284 63//63 67//67
f 284//284 67//67 65//65
f 66//66 76//76 75//75
f 66//66 75//75 73//73
f 286//286 290//290 289//289
f 286//286 289//289 287//287
f 287//287 289//289 81//81
f 287//287 81//81 288//288
f 78//78 79//79 293//293
f 78//78 293//293 291//291
f 291//291 293//293 285//285
f 291//291 285//285 292//292
f 345//345 2//2 4//4
f 345//345 4//4 358//358
f 5//5 148//148 147//147
f 5//5 147//147 6//6
f 8//8 88//88 93//93
f 8//8 93//93 32//32
f 14//14 90//90 89//89
f 14//14 89//89 19//19
f 27//27 85//85 84//84
f 27//27 84//84 31//31
f 26//26 83//83 82//82
f 26//26 82//82 13//13
f 358//358 286//286 44//44
f 358//358 44//44 43//43
f 345//345 358//358 43//43
f 345//345 43//43 42//42
f 95//95 345//345 42//42
f 95//95 42//42 45//45
f 365//365 297//297 296//296
f 365//365 296//296 141//141
f 366//366 365//365 141//141
f 365//365 269//269 295//295
f 238//238 100//100 99//99
f 238//238 99//99 235//235
f 223//223 30//30 29//29
f 223//223 29//29 150//150
f 23//23 146//146 149//149
f 23//23 149//149 36//36
f 361//361 378//378 41//41
f 361//361 41//41 21//21
f 361//361 23//23 22//22
f 361//361 22//22 378//378
f 378//378 370//370 17//17
f 378//378 17//17 41//41
f 378//378 22//22 40//40
f 378//378 40//40 370//370
f 248//248 57//57 68//68
f 248//248 68//68 255//255
f 294//294 297//297 365//365
f 294//294 365//365 295//295
f 101//101 364//364 318//318
f 101//101 318//318 300//300
f 267//267 303//303 264//264
f 267//267 264//264 273//273
f 160//160 163//163 162//162
f 160//160 162//162 161//161
f 163//163 366//366 369//369
f 163//163 369//369 201//201
f 366//366 141//141 140//140
f 366//366 140//140 369//369
f 307//307 315//315 344//344
f 307//307 344//344 308//308
f 308//308 379//379 376//376
f 308//308 376//376 183//183
f 225//225 227//227 311//311
f 225//225 311//311 310//310
f 228//228 229//229 230//230
f 228//228 230//230 302//302
f 137//137 136//136 135//135
f 137//137 135//135 312//312
f 312//312 135//135 313//313
f 312//312 313//313 153//153
f 314//314 184//184 315//315
f 314//314 315//315 307//307
f 309//309 181//181 182//182
f 309//309 182//182 183//183
f 202//202 113//113 184//184
f 202//202 184//184 314//314
f 48//48 133//133 134//134
f 48//48 134//134 49//49
f 301//301 317//317 346//346
f 317//317 316//316 346//346
f 316//316 306//306 346//346
f 96//96 222//222 226//226
f 96//96 226//226 224//224
f 304//304 305//305 300//300
f 304//304 300//300 318//318
f 319//319 371//371 265//265
f 319//319 265//265 264//264
f 364//364 323//323 324//324
f 364//364 324//324 318//318
f 364//364 363//363 322//322
f 364//364 322//322 323//323
f 363//363 357//357 320//320
f 363//363 320//320 322//322
f 357//357 279//279 321//321
f 357//357 321//321 320//320
f 295//295 269//269 268//268
f 295//295 268//268 164//164
f 165//165 261//261 260//260
f 165//165 260//260 325//325
f 326//326 117//117 333//333
f 326//326 333//333 327//327
f 327//327 333//333 330//330
f 327//327 330//330 166//166
f 332//332 328//328 329//329
f 332//332 329//329 331//331
f 330//330 333//333 328//328
f 330//330 328//328 332//332
f 334//334 121//121 337//337
f 334//334 337//337 335//335
f 335//335 337//337 336//336
f 335//335 336//336 142//142
f 58//58 122//122 121//121
f 58//58 121//121 334//334
f 372//372 375//375 262//262
f 372//372 262//262 271//271
f 143//143 338//338 340//340
f 143//143 340//340 339//339
f 349//349 280//280 250//250
f 377//377 213//213 221//221
f 377//377 221//221 343//343
f 308//308 344//344 379//379
f 341//341 47//47 50//50
f 341//341 50//50 342//342
f 221//221 220//220 219//219
f 221//221 219//219 343//343
f 342//342 54//54 48//48
f 342//342 48//48 341//341
f 281//281 280//280 349//349
